G04 #@! TF.GenerationSoftware,KiCad,Pcbnew,(5.1.0)-1*
G04 #@! TF.CreationDate,2023-04-17T19:30:15-07:00*
G04 #@! TF.ProjectId,LED_Matrix_7219,4c45445f-4d61-4747-9269-785f37323139,rev?*
G04 #@! TF.SameCoordinates,PXffd93e20PY525bfc0*
G04 #@! TF.FileFunction,Copper,L2,Bot*
G04 #@! TF.FilePolarity,Positive*
%FSLAX45Y45*%
G04 Gerber Fmt 4.5, Leading zero omitted, Abs format (unit mm)*
G04 Created by KiCad (PCBNEW (5.1.0)-1) date 2023-04-17 19:30:15*
%MOMM*%
%LPD*%
G04 APERTURE LIST*
%ADD10C,1.800000*%
%ADD11R,1.800000X1.800000*%
%ADD12R,3.000000X3.000000*%
%ADD13C,3.000000*%
%ADD14R,1.700000X1.700000*%
%ADD15O,1.700000X1.700000*%
%ADD16C,1.600000*%
%ADD17O,1.600000X1.600000*%
%ADD18R,1.600000X1.600000*%
%ADD19C,1.016000*%
%ADD20C,1.524000*%
%ADD21C,1.016000*%
%ADD22C,0.508000*%
G04 APERTURE END LIST*
D10*
X5842000Y8636000D03*
D11*
X5588000Y8636000D03*
D10*
X5842000Y7874000D03*
D11*
X5588000Y7874000D03*
D10*
X5842000Y7112000D03*
D11*
X5588000Y7112000D03*
X5588000Y6350000D03*
D10*
X5842000Y6350000D03*
X5842000Y5588000D03*
D11*
X5588000Y5588000D03*
X5588000Y4826000D03*
D10*
X5842000Y4826000D03*
X5842000Y4064000D03*
D11*
X5588000Y4064000D03*
D10*
X5842000Y3302000D03*
D11*
X5588000Y3302000D03*
X4826000Y8636000D03*
D10*
X5080000Y8636000D03*
D11*
X4826000Y7874000D03*
D10*
X5080000Y7874000D03*
D11*
X4826000Y7112000D03*
D10*
X5080000Y7112000D03*
X5080000Y6350000D03*
D11*
X4826000Y6350000D03*
X4826000Y5588000D03*
D10*
X5080000Y5588000D03*
X5080000Y4826000D03*
D11*
X4826000Y4826000D03*
D10*
X5080000Y4064000D03*
D11*
X4826000Y4064000D03*
D10*
X5080000Y3302000D03*
D11*
X4826000Y3302000D03*
D10*
X4318000Y8636000D03*
D11*
X4064000Y8636000D03*
D10*
X4318000Y7874000D03*
D11*
X4064000Y7874000D03*
D10*
X4318000Y7112000D03*
D11*
X4064000Y7112000D03*
X4064000Y6350000D03*
D10*
X4318000Y6350000D03*
X4318000Y5588000D03*
D11*
X4064000Y5588000D03*
X4064000Y4826000D03*
D10*
X4318000Y4826000D03*
D11*
X4064000Y4064000D03*
D10*
X4318000Y4064000D03*
D11*
X4064000Y3302000D03*
D10*
X4318000Y3302000D03*
D11*
X3302000Y8636000D03*
D10*
X3556000Y8636000D03*
D11*
X3302000Y7874000D03*
D10*
X3556000Y7874000D03*
D11*
X3302000Y7112000D03*
D10*
X3556000Y7112000D03*
X3556000Y6350000D03*
D11*
X3302000Y6350000D03*
X3302000Y5588000D03*
D10*
X3556000Y5588000D03*
D11*
X3302000Y4826000D03*
D10*
X3556000Y4826000D03*
X3556000Y4064000D03*
D11*
X3302000Y4064000D03*
D10*
X3556000Y3302000D03*
D11*
X3302000Y3302000D03*
D10*
X2794000Y8636000D03*
D11*
X2540000Y8636000D03*
D10*
X2794000Y7874000D03*
D11*
X2540000Y7874000D03*
D10*
X2794000Y7112000D03*
D11*
X2540000Y7112000D03*
X2540000Y6350000D03*
D10*
X2794000Y6350000D03*
X2794000Y5588000D03*
D11*
X2540000Y5588000D03*
D10*
X2794000Y4826000D03*
D11*
X2540000Y4826000D03*
X2540000Y4064000D03*
D10*
X2794000Y4064000D03*
D11*
X2540000Y3302000D03*
D10*
X2794000Y3302000D03*
D11*
X1778000Y8636000D03*
D10*
X2032000Y8636000D03*
D11*
X1778000Y7874000D03*
D10*
X2032000Y7874000D03*
D11*
X1778000Y7112000D03*
D10*
X2032000Y7112000D03*
D11*
X1778000Y6350000D03*
D10*
X2032000Y6350000D03*
D11*
X1778000Y5588000D03*
D10*
X2032000Y5588000D03*
D11*
X1778000Y4826000D03*
D10*
X2032000Y4826000D03*
X2032000Y4064000D03*
D11*
X1778000Y4064000D03*
D10*
X2032000Y3302000D03*
D11*
X1778000Y3302000D03*
D10*
X1270000Y8636000D03*
D11*
X1016000Y8636000D03*
D10*
X1270000Y7874000D03*
D11*
X1016000Y7874000D03*
D10*
X1270000Y7112000D03*
D11*
X1016000Y7112000D03*
D10*
X1270000Y6350000D03*
D11*
X1016000Y6350000D03*
D10*
X1270000Y5588000D03*
D11*
X1016000Y5588000D03*
D10*
X1270000Y4826000D03*
D11*
X1016000Y4826000D03*
X1016000Y4064000D03*
D10*
X1270000Y4064000D03*
D11*
X1016000Y3302000D03*
D10*
X1270000Y3302000D03*
D11*
X254000Y8636000D03*
D10*
X508000Y8636000D03*
D11*
X254000Y7874000D03*
D10*
X508000Y7874000D03*
D11*
X254000Y7112000D03*
D10*
X508000Y7112000D03*
D11*
X254000Y6350000D03*
D10*
X508000Y6350000D03*
D11*
X254000Y5588000D03*
D10*
X508000Y5588000D03*
D11*
X254000Y4826000D03*
D10*
X508000Y4826000D03*
X508000Y4064000D03*
D11*
X254000Y4064000D03*
D10*
X508000Y3302000D03*
D11*
X254000Y3302000D03*
D12*
X1270000Y1219200D03*
D13*
X762000Y1219200D03*
D14*
X4445000Y965200D03*
D15*
X4445000Y1219200D03*
X4191000Y965200D03*
X4191000Y1219200D03*
X3937000Y965200D03*
X3937000Y1219200D03*
D16*
X1270000Y1841500D03*
D17*
X1270000Y2603500D03*
D18*
X4445000Y2603500D03*
D17*
X1651000Y1841500D03*
X4191000Y2603500D03*
X1905000Y1841500D03*
X3937000Y2603500D03*
X2159000Y1841500D03*
X3683000Y2603500D03*
X2413000Y1841500D03*
X3429000Y2603500D03*
X2667000Y1841500D03*
X3175000Y2603500D03*
X2921000Y1841500D03*
X2921000Y2603500D03*
X3175000Y1841500D03*
X2667000Y2603500D03*
X3429000Y1841500D03*
X2413000Y2603500D03*
X3683000Y1841500D03*
X2159000Y2603500D03*
X3937000Y1841500D03*
X1905000Y2603500D03*
X4191000Y1841500D03*
X1651000Y2603500D03*
X4445000Y1841500D03*
D18*
X2565400Y1219200D03*
D16*
X2565400Y969200D03*
X3175000Y1219200D03*
X3175000Y969200D03*
D19*
X5080000Y1574800D03*
X1447800Y2387600D03*
D20*
X1270000Y1841500D02*
X1270000Y1219200D01*
X1270000Y1219200D02*
X3175000Y1219200D01*
X3175000Y1219200D02*
X3175000Y1841500D01*
X762000Y1219200D02*
X762000Y762000D01*
X762000Y762000D02*
X863600Y660400D01*
X3860800Y660400D02*
X3937000Y736600D01*
X3937000Y736600D02*
X3937000Y1219200D01*
X2565400Y969200D02*
X2565400Y660400D01*
X863600Y660400D02*
X2565400Y660400D01*
X3175000Y969200D02*
X3175000Y660400D01*
X2565400Y660400D02*
X3175000Y660400D01*
X3175000Y660400D02*
X3860800Y660400D01*
X3683000Y2844800D02*
X3683000Y2603500D01*
X762000Y1219200D02*
X762000Y2641600D01*
X762000Y2641600D02*
X965200Y2844800D01*
X2413000Y2603500D02*
X2413000Y2844800D01*
X965200Y2844800D02*
X2413000Y2844800D01*
X2413000Y2844800D02*
X3683000Y2844800D01*
D21*
X254000Y8636000D02*
X254000Y8890000D01*
X254000Y8890000D02*
X1016000Y8890000D01*
X1016000Y8636000D02*
X1016000Y8890000D01*
X1778000Y8636000D02*
X1778000Y8890000D01*
X2540000Y8636000D02*
X2540000Y8890000D01*
X3302000Y8636000D02*
X3302000Y8890000D01*
X4064000Y8636000D02*
X4064000Y8890000D01*
X4826000Y8636000D02*
X4826000Y8890000D01*
X5588000Y8636000D02*
X5588000Y8890000D01*
X1016000Y8890000D02*
X1778000Y8890000D01*
X1778000Y8890000D02*
X2540000Y8890000D01*
X2540000Y8890000D02*
X3302000Y8890000D01*
X3302000Y8890000D02*
X4064000Y8890000D01*
X4064000Y8890000D02*
X4826000Y8890000D01*
X4826000Y8890000D02*
X5588000Y8890000D01*
X254000Y7874000D02*
X254000Y8128000D01*
X1016000Y7874000D02*
X1016000Y8128000D01*
X1778000Y7874000D02*
X1778000Y8128000D01*
X2540000Y7874000D02*
X2540000Y8128000D01*
X3302000Y7874000D02*
X3302000Y8128000D01*
X4064000Y7874000D02*
X4064000Y8128000D01*
X4826000Y7874000D02*
X4826000Y8128000D01*
X5588000Y7874000D02*
X5588000Y8128000D01*
X254000Y8128000D02*
X1016000Y8128000D01*
X1016000Y8128000D02*
X1778000Y8128000D01*
X1778000Y8128000D02*
X2540000Y8128000D01*
X2540000Y8128000D02*
X3302000Y8128000D01*
X3302000Y8128000D02*
X4064000Y8128000D01*
X4064000Y8128000D02*
X4826000Y8128000D01*
X4826000Y8128000D02*
X5588000Y8128000D01*
X254000Y7112000D02*
X254000Y7366000D01*
X1016000Y7112000D02*
X1016000Y7366000D01*
X1778000Y7112000D02*
X1778000Y7366000D01*
X2540000Y7112000D02*
X2540000Y7366000D01*
X3302000Y7112000D02*
X3302000Y7366000D01*
X4064000Y7112000D02*
X4064000Y7366000D01*
X4826000Y7112000D02*
X4826000Y7366000D01*
X5588000Y7112000D02*
X5588000Y7366000D01*
X254000Y7366000D02*
X1016000Y7366000D01*
X1016000Y7366000D02*
X1778000Y7366000D01*
X1778000Y7366000D02*
X2540000Y7366000D01*
X2540000Y7366000D02*
X3302000Y7366000D01*
X3302000Y7366000D02*
X4064000Y7366000D01*
X4064000Y7366000D02*
X4826000Y7366000D01*
X4826000Y7366000D02*
X5588000Y7366000D01*
X254000Y6350000D02*
X254000Y6604000D01*
X1016000Y6350000D02*
X1016000Y6604000D01*
X1778000Y6350000D02*
X1778000Y6604000D01*
X2540000Y6350000D02*
X2540000Y6604000D01*
X3302000Y6350000D02*
X3302000Y6604000D01*
X4064000Y6350000D02*
X4064000Y6604000D01*
X4826000Y6350000D02*
X4826000Y6604000D01*
X5588000Y6350000D02*
X5588000Y6604000D01*
X254000Y6604000D02*
X1016000Y6604000D01*
X1016000Y6604000D02*
X1778000Y6604000D01*
X1778000Y6604000D02*
X2540000Y6604000D01*
X2540000Y6604000D02*
X3302000Y6604000D01*
X3302000Y6604000D02*
X4064000Y6604000D01*
X4064000Y6604000D02*
X4826000Y6604000D01*
X4826000Y6604000D02*
X5588000Y6604000D01*
X254000Y5588000D02*
X254000Y5842000D01*
X1016000Y5588000D02*
X1016000Y5842000D01*
X1778000Y5588000D02*
X1778000Y5842000D01*
X2540000Y5588000D02*
X2540000Y5842000D01*
X3302000Y5588000D02*
X3302000Y5842000D01*
X4064000Y5588000D02*
X4064000Y5842000D01*
X4826000Y5588000D02*
X4826000Y5842000D01*
X5588000Y5588000D02*
X5588000Y5842000D01*
X254000Y5842000D02*
X1016000Y5842000D01*
X1016000Y5842000D02*
X1778000Y5842000D01*
X1778000Y5842000D02*
X2540000Y5842000D01*
X2540000Y5842000D02*
X3302000Y5842000D01*
X3302000Y5842000D02*
X4064000Y5842000D01*
X4064000Y5842000D02*
X4826000Y5842000D01*
X4826000Y5842000D02*
X5588000Y5842000D01*
X254000Y4826000D02*
X254000Y5080000D01*
X1016000Y4826000D02*
X1016000Y5080000D01*
X1778000Y4826000D02*
X1778000Y5080000D01*
X2540000Y4826000D02*
X2540000Y5080000D01*
X3302000Y4826000D02*
X3302000Y5080000D01*
X4064000Y4826000D02*
X4064000Y5080000D01*
X4826000Y4826000D02*
X4826000Y5080000D01*
X5588000Y4826000D02*
X5588000Y5080000D01*
X254000Y5080000D02*
X1016000Y5080000D01*
X1016000Y5080000D02*
X1778000Y5080000D01*
X1778000Y5080000D02*
X2540000Y5080000D01*
X2540000Y5080000D02*
X3302000Y5080000D01*
X3302000Y5080000D02*
X4064000Y5080000D01*
X4064000Y5080000D02*
X4826000Y5080000D01*
X4826000Y5080000D02*
X5588000Y5080000D01*
X254000Y4064000D02*
X254000Y4318000D01*
X1016000Y4064000D02*
X1016000Y4318000D01*
X1778000Y4064000D02*
X1778000Y4318000D01*
X2540000Y4064000D02*
X2540000Y4318000D01*
X3302000Y4064000D02*
X3302000Y4318000D01*
X4064000Y4064000D02*
X4064000Y4318000D01*
X4826000Y4064000D02*
X4826000Y4318000D01*
X5588000Y4064000D02*
X5588000Y4318000D01*
X254000Y4318000D02*
X1016000Y4318000D01*
X1016000Y4318000D02*
X1778000Y4318000D01*
X1778000Y4318000D02*
X2540000Y4318000D01*
X2540000Y4318000D02*
X3302000Y4318000D01*
X3302000Y4318000D02*
X4064000Y4318000D01*
X4064000Y4318000D02*
X4826000Y4318000D01*
X4826000Y4318000D02*
X5588000Y4318000D01*
X254000Y3302000D02*
X254000Y3556000D01*
X1016000Y3302000D02*
X1016000Y3556000D01*
X1778000Y3302000D02*
X1778000Y3556000D01*
X2540000Y3302000D02*
X2540000Y3556000D01*
X3302000Y3302000D02*
X3302000Y3556000D01*
X4064000Y3302000D02*
X4064000Y3556000D01*
X4826000Y3302000D02*
X4826000Y3556000D01*
X5588000Y3302000D02*
X5588000Y3556000D01*
X254000Y3556000D02*
X1016000Y3556000D01*
X1016000Y3556000D02*
X1778000Y3556000D01*
X1778000Y3556000D02*
X2540000Y3556000D01*
X2540000Y3556000D02*
X3302000Y3556000D01*
X3302000Y3556000D02*
X4064000Y3556000D01*
X4064000Y3556000D02*
X4826000Y3556000D01*
X4826000Y3556000D02*
X5588000Y3556000D01*
D22*
X5080000Y3302000D02*
X5080000Y1574800D01*
X4191000Y1841500D02*
X4191000Y2286000D01*
X4191000Y2286000D02*
X4064000Y2413000D01*
X4064000Y2413000D02*
X4064000Y2971800D01*
X4064000Y2971800D02*
X3962400Y3073400D01*
X3962400Y3073400D02*
X3606800Y3073400D01*
X3556000Y3124200D02*
X3556000Y3302000D01*
X3606800Y3073400D02*
X3556000Y3124200D01*
X1447800Y2387600D02*
X3759200Y2387600D01*
X3937000Y2209800D02*
X3937000Y1841500D01*
X3759200Y2387600D02*
X3937000Y2209800D01*
X4699000Y2349500D02*
X4445000Y2603500D01*
X4622800Y965200D02*
X4699000Y1041400D01*
X4699000Y1041400D02*
X4699000Y2349500D01*
X4445000Y965200D02*
X4622800Y965200D01*
X4445000Y1219200D02*
X4445000Y1841500D01*
X1270000Y2603500D02*
X1270000Y2159000D01*
X1270000Y2159000D02*
X1346200Y2082800D01*
X1346200Y2082800D02*
X2844800Y2082800D01*
X2921000Y2006600D02*
X2921000Y1841500D01*
X2844800Y2082800D02*
X2921000Y2006600D01*
M02*
