G04 #@! TF.GenerationSoftware,KiCad,Pcbnew,(5.1.0)-1*
G04 #@! TF.CreationDate,2023-04-17T19:30:15-07:00*
G04 #@! TF.ProjectId,LED_Matrix_7219,4c45445f-4d61-4747-9269-785f37323139,rev?*
G04 #@! TF.SameCoordinates,PXffd93e20PY525bfc0*
G04 #@! TF.FileFunction,Legend,Bot*
G04 #@! TF.FilePolarity,Positive*
%FSLAX45Y45*%
G04 Gerber Fmt 4.5, Leading zero omitted, Abs format (unit mm)*
G04 Created by KiCad (PCBNEW (5.1.0)-1) date 2023-04-17 19:30:15*
%MOMM*%
%LPD*%
G04 APERTURE LIST*
%ADD10C,0.150000*%
%ADD11C,0.120000*%
%ADD12C,1.902000*%
%ADD13R,1.902000X1.902000*%
%ADD14C,2.802000*%
%ADD15R,3.102000X3.102000*%
%ADD16C,3.102000*%
%ADD17R,1.802000X1.802000*%
%ADD18O,1.802000X1.802000*%
%ADD19C,1.702000*%
%ADD20O,1.702000X1.702000*%
%ADD21R,1.702000X1.702000*%
G04 APERTURE END LIST*
D10*
X712000Y736590D02*
X707238Y746114D01*
X707238Y760400D01*
X712000Y774686D01*
X721524Y784210D01*
X731048Y788971D01*
X750095Y793733D01*
X764381Y793733D01*
X783428Y788971D01*
X792952Y784210D01*
X802476Y774686D01*
X807238Y760400D01*
X807238Y750876D01*
X802476Y736590D01*
X797714Y731829D01*
X764381Y731829D01*
X764381Y750876D01*
X807238Y688972D02*
X707238Y688972D01*
X807238Y631829D01*
X707238Y631829D01*
X807238Y584210D02*
X707238Y584210D01*
X707238Y560400D01*
X712000Y546114D01*
X721524Y536591D01*
X731048Y531829D01*
X750095Y527067D01*
X764381Y527067D01*
X783428Y531829D01*
X792952Y536591D01*
X802476Y546114D01*
X807238Y560400D01*
X807238Y584210D01*
X1277143Y788971D02*
X1277143Y712781D01*
X1315238Y750876D02*
X1239048Y750876D01*
X1215238Y617543D02*
X1215238Y665162D01*
X1262857Y669924D01*
X1258095Y665162D01*
X1253333Y655638D01*
X1253333Y631829D01*
X1258095Y622305D01*
X1262857Y617543D01*
X1272381Y612781D01*
X1296190Y612781D01*
X1305714Y617543D01*
X1310476Y622305D01*
X1315238Y631829D01*
X1315238Y655638D01*
X1310476Y665162D01*
X1305714Y669924D01*
X1215238Y584210D02*
X1315238Y550876D01*
X1215238Y517543D01*
X4490238Y1718448D02*
X4390238Y1718448D01*
X4390238Y1694638D01*
X4395000Y1680352D01*
X4404524Y1670829D01*
X4414048Y1666067D01*
X4433095Y1661305D01*
X4447381Y1661305D01*
X4466429Y1666067D01*
X4475952Y1670829D01*
X4485476Y1680352D01*
X4490238Y1694638D01*
X4490238Y1718448D01*
X4390238Y1599400D02*
X4390238Y1580352D01*
X4395000Y1570829D01*
X4404524Y1561305D01*
X4423571Y1556543D01*
X4456905Y1556543D01*
X4475952Y1561305D01*
X4485476Y1570829D01*
X4490238Y1580352D01*
X4490238Y1599400D01*
X4485476Y1608924D01*
X4475952Y1618448D01*
X4456905Y1623210D01*
X4423571Y1623210D01*
X4404524Y1618448D01*
X4395000Y1608924D01*
X4390238Y1599400D01*
X4390238Y1513686D02*
X4471190Y1513686D01*
X4480714Y1508924D01*
X4485476Y1504162D01*
X4490238Y1494638D01*
X4490238Y1475590D01*
X4485476Y1466067D01*
X4480714Y1461305D01*
X4471190Y1456543D01*
X4390238Y1456543D01*
X4390238Y1423210D02*
X4390238Y1366067D01*
X4490238Y1394638D02*
X4390238Y1394638D01*
X4490238Y737381D02*
X4390238Y737381D01*
X4390238Y713571D01*
X4395000Y699286D01*
X4404524Y689762D01*
X4414048Y685000D01*
X4433095Y680238D01*
X4447381Y680238D01*
X4466429Y685000D01*
X4475952Y689762D01*
X4485476Y699286D01*
X4490238Y713571D01*
X4490238Y737381D01*
X4490238Y637381D02*
X4390238Y637381D01*
X4490238Y589762D02*
X4390238Y589762D01*
X4490238Y532619D01*
X4390238Y532619D01*
X4226714Y1608924D02*
X4231476Y1613686D01*
X4236238Y1627971D01*
X4236238Y1637495D01*
X4231476Y1651781D01*
X4221952Y1661305D01*
X4212429Y1666067D01*
X4193381Y1670829D01*
X4179095Y1670829D01*
X4160048Y1666067D01*
X4150524Y1661305D01*
X4141000Y1651781D01*
X4136238Y1637495D01*
X4136238Y1627971D01*
X4141000Y1613686D01*
X4145762Y1608924D01*
X4236238Y1518448D02*
X4236238Y1566067D01*
X4136238Y1566067D01*
X4236238Y1485114D02*
X4136238Y1485114D01*
X4236238Y1427971D02*
X4179095Y1470829D01*
X4136238Y1427971D02*
X4193381Y1485114D01*
X4099500Y732619D02*
X4099500Y632619D01*
X4226714Y651667D02*
X4231476Y656429D01*
X4236238Y670714D01*
X4236238Y680238D01*
X4231476Y694524D01*
X4221952Y704048D01*
X4212429Y708810D01*
X4193381Y713571D01*
X4179095Y713571D01*
X4160048Y708810D01*
X4150524Y704048D01*
X4141000Y694524D01*
X4136238Y680238D01*
X4136238Y670714D01*
X4141000Y656429D01*
X4145762Y651667D01*
X4099500Y632619D02*
X4099500Y537381D01*
X4231476Y613572D02*
X4236238Y599286D01*
X4236238Y575476D01*
X4231476Y565952D01*
X4226714Y561191D01*
X4217190Y556429D01*
X4207667Y556429D01*
X4198143Y561191D01*
X4193381Y565952D01*
X4188619Y575476D01*
X4183857Y594524D01*
X4179095Y604048D01*
X4174333Y608810D01*
X4164809Y613572D01*
X4155286Y613572D01*
X4145762Y608810D01*
X4141000Y604048D01*
X4136238Y594524D01*
X4136238Y570714D01*
X4141000Y556429D01*
X3887000Y711190D02*
X3882238Y720714D01*
X3882238Y735000D01*
X3887000Y749286D01*
X3896524Y758810D01*
X3906048Y763571D01*
X3925095Y768333D01*
X3939381Y768333D01*
X3958428Y763571D01*
X3967952Y758810D01*
X3977476Y749286D01*
X3982238Y735000D01*
X3982238Y725476D01*
X3977476Y711190D01*
X3972714Y706429D01*
X3939381Y706429D01*
X3939381Y725476D01*
X3982238Y663572D02*
X3882238Y663572D01*
X3982238Y606429D01*
X3882238Y606429D01*
X3982238Y558810D02*
X3882238Y558810D01*
X3882238Y535000D01*
X3887000Y520714D01*
X3896524Y511190D01*
X3906048Y506429D01*
X3925095Y501667D01*
X3939381Y501667D01*
X3958428Y506429D01*
X3967952Y511190D01*
X3977476Y520714D01*
X3982238Y535000D01*
X3982238Y558810D01*
X3887000Y1625590D02*
X3882238Y1635114D01*
X3882238Y1649400D01*
X3887000Y1663686D01*
X3896524Y1673210D01*
X3906048Y1677971D01*
X3925095Y1682733D01*
X3939381Y1682733D01*
X3958428Y1677971D01*
X3967952Y1673210D01*
X3977476Y1663686D01*
X3982238Y1649400D01*
X3982238Y1639876D01*
X3977476Y1625590D01*
X3972714Y1620829D01*
X3939381Y1620829D01*
X3939381Y1639876D01*
X3982238Y1577971D02*
X3882238Y1577971D01*
X3982238Y1520829D01*
X3882238Y1520829D01*
X3982238Y1473210D02*
X3882238Y1473210D01*
X3882238Y1449400D01*
X3887000Y1435114D01*
X3896524Y1425590D01*
X3906048Y1420829D01*
X3925095Y1416067D01*
X3939381Y1416067D01*
X3958428Y1420829D01*
X3967952Y1425590D01*
X3977476Y1435114D01*
X3982238Y1449400D01*
X3982238Y1473210D01*
D11*
X508000Y965200D02*
X1524000Y965200D01*
X508000Y838200D02*
X508000Y1600200D01*
X508000Y1600200D02*
X1524000Y1600200D01*
X1524000Y1600200D02*
X1524000Y838200D01*
X1524000Y838200D02*
X508000Y838200D01*
X3804000Y832200D02*
X3804000Y1352200D01*
X4318000Y832200D02*
X3804000Y832200D01*
X4578000Y1352200D02*
X3804000Y1352200D01*
X4318000Y832200D02*
X4318000Y1092200D01*
X4318000Y1092200D02*
X4578000Y1092200D01*
X4578000Y1092200D02*
X4578000Y1352200D01*
X4445000Y832200D02*
X4578000Y832200D01*
X4578000Y832200D02*
X4578000Y965200D01*
D10*
X1570838Y1252533D02*
X1642267Y1252533D01*
X1656552Y1257295D01*
X1666076Y1266819D01*
X1670838Y1281105D01*
X1670838Y1290629D01*
X1670838Y1152533D02*
X1670838Y1209676D01*
X1670838Y1181105D02*
X1570838Y1181105D01*
X1585124Y1190629D01*
X1594648Y1200152D01*
X1599409Y1209676D01*
X4623238Y1125533D02*
X4694667Y1125533D01*
X4708952Y1130295D01*
X4718476Y1139819D01*
X4723238Y1154105D01*
X4723238Y1163629D01*
X4632762Y1082676D02*
X4628000Y1077914D01*
X4623238Y1068391D01*
X4623238Y1044581D01*
X4628000Y1035057D01*
X4632762Y1030295D01*
X4642286Y1025533D01*
X4651810Y1025533D01*
X4666095Y1030295D01*
X4723238Y1087438D01*
X4723238Y1025533D01*
%LPC*%
D12*
X5842000Y8636000D03*
D13*
X5588000Y8636000D03*
D12*
X5842000Y7874000D03*
D13*
X5588000Y7874000D03*
D12*
X5842000Y7112000D03*
D13*
X5588000Y7112000D03*
X5588000Y6350000D03*
D12*
X5842000Y6350000D03*
X5842000Y5588000D03*
D13*
X5588000Y5588000D03*
X5588000Y4826000D03*
D12*
X5842000Y4826000D03*
X5842000Y4064000D03*
D13*
X5588000Y4064000D03*
D12*
X5842000Y3302000D03*
D13*
X5588000Y3302000D03*
X4826000Y8636000D03*
D12*
X5080000Y8636000D03*
D13*
X4826000Y7874000D03*
D12*
X5080000Y7874000D03*
D13*
X4826000Y7112000D03*
D12*
X5080000Y7112000D03*
X5080000Y6350000D03*
D13*
X4826000Y6350000D03*
X4826000Y5588000D03*
D12*
X5080000Y5588000D03*
X5080000Y4826000D03*
D13*
X4826000Y4826000D03*
D12*
X5080000Y4064000D03*
D13*
X4826000Y4064000D03*
D12*
X5080000Y3302000D03*
D13*
X4826000Y3302000D03*
D12*
X4318000Y8636000D03*
D13*
X4064000Y8636000D03*
D12*
X4318000Y7874000D03*
D13*
X4064000Y7874000D03*
D12*
X4318000Y7112000D03*
D13*
X4064000Y7112000D03*
X4064000Y6350000D03*
D12*
X4318000Y6350000D03*
X4318000Y5588000D03*
D13*
X4064000Y5588000D03*
X4064000Y4826000D03*
D12*
X4318000Y4826000D03*
D13*
X4064000Y4064000D03*
D12*
X4318000Y4064000D03*
D13*
X4064000Y3302000D03*
D12*
X4318000Y3302000D03*
D13*
X3302000Y8636000D03*
D12*
X3556000Y8636000D03*
D13*
X3302000Y7874000D03*
D12*
X3556000Y7874000D03*
D13*
X3302000Y7112000D03*
D12*
X3556000Y7112000D03*
X3556000Y6350000D03*
D13*
X3302000Y6350000D03*
X3302000Y5588000D03*
D12*
X3556000Y5588000D03*
D13*
X3302000Y4826000D03*
D12*
X3556000Y4826000D03*
X3556000Y4064000D03*
D13*
X3302000Y4064000D03*
D12*
X3556000Y3302000D03*
D13*
X3302000Y3302000D03*
D12*
X2794000Y8636000D03*
D13*
X2540000Y8636000D03*
D12*
X2794000Y7874000D03*
D13*
X2540000Y7874000D03*
D12*
X2794000Y7112000D03*
D13*
X2540000Y7112000D03*
X2540000Y6350000D03*
D12*
X2794000Y6350000D03*
X2794000Y5588000D03*
D13*
X2540000Y5588000D03*
D12*
X2794000Y4826000D03*
D13*
X2540000Y4826000D03*
X2540000Y4064000D03*
D12*
X2794000Y4064000D03*
D13*
X2540000Y3302000D03*
D12*
X2794000Y3302000D03*
D13*
X1778000Y8636000D03*
D12*
X2032000Y8636000D03*
D13*
X1778000Y7874000D03*
D12*
X2032000Y7874000D03*
D13*
X1778000Y7112000D03*
D12*
X2032000Y7112000D03*
D13*
X1778000Y6350000D03*
D12*
X2032000Y6350000D03*
D13*
X1778000Y5588000D03*
D12*
X2032000Y5588000D03*
D13*
X1778000Y4826000D03*
D12*
X2032000Y4826000D03*
X2032000Y4064000D03*
D13*
X1778000Y4064000D03*
D12*
X2032000Y3302000D03*
D13*
X1778000Y3302000D03*
D12*
X1270000Y8636000D03*
D13*
X1016000Y8636000D03*
D12*
X1270000Y7874000D03*
D13*
X1016000Y7874000D03*
D12*
X1270000Y7112000D03*
D13*
X1016000Y7112000D03*
D12*
X1270000Y6350000D03*
D13*
X1016000Y6350000D03*
D12*
X1270000Y5588000D03*
D13*
X1016000Y5588000D03*
D12*
X1270000Y4826000D03*
D13*
X1016000Y4826000D03*
X1016000Y4064000D03*
D12*
X1270000Y4064000D03*
D13*
X1016000Y3302000D03*
D12*
X1270000Y3302000D03*
D13*
X254000Y8636000D03*
D12*
X508000Y8636000D03*
D13*
X254000Y7874000D03*
D12*
X508000Y7874000D03*
D13*
X254000Y7112000D03*
D12*
X508000Y7112000D03*
D13*
X254000Y6350000D03*
D12*
X508000Y6350000D03*
D13*
X254000Y5588000D03*
D12*
X508000Y5588000D03*
D13*
X254000Y4826000D03*
D12*
X508000Y4826000D03*
X508000Y4064000D03*
D13*
X254000Y4064000D03*
D12*
X508000Y3302000D03*
D13*
X254000Y3302000D03*
D14*
X381000Y9271000D03*
X5715000Y9271000D03*
X5715000Y381000D03*
X381000Y381000D03*
D15*
X1270000Y1219200D03*
D16*
X762000Y1219200D03*
D17*
X4445000Y965200D03*
D18*
X4445000Y1219200D03*
X4191000Y965200D03*
X4191000Y1219200D03*
X3937000Y965200D03*
X3937000Y1219200D03*
D19*
X1270000Y1841500D03*
D20*
X1270000Y2603500D03*
D21*
X4445000Y2603500D03*
D20*
X1651000Y1841500D03*
X4191000Y2603500D03*
X1905000Y1841500D03*
X3937000Y2603500D03*
X2159000Y1841500D03*
X3683000Y2603500D03*
X2413000Y1841500D03*
X3429000Y2603500D03*
X2667000Y1841500D03*
X3175000Y2603500D03*
X2921000Y1841500D03*
X2921000Y2603500D03*
X3175000Y1841500D03*
X2667000Y2603500D03*
X3429000Y1841500D03*
X2413000Y2603500D03*
X3683000Y1841500D03*
X2159000Y2603500D03*
X3937000Y1841500D03*
X1905000Y2603500D03*
X4191000Y1841500D03*
X1651000Y2603500D03*
X4445000Y1841500D03*
D21*
X2565400Y1219200D03*
D19*
X2565400Y969200D03*
X3175000Y1219200D03*
X3175000Y969200D03*
M02*
