G04 #@! TF.GenerationSoftware,KiCad,Pcbnew,(5.1.0)-1*
G04 #@! TF.CreationDate,2023-04-17T19:30:15-07:00*
G04 #@! TF.ProjectId,LED_Matrix_7219,4c45445f-4d61-4747-9269-785f37323139,rev?*
G04 #@! TF.SameCoordinates,PXffd93e20PY525bfc0*
G04 #@! TF.FileFunction,Copper,L1,Top*
G04 #@! TF.FilePolarity,Positive*
%FSLAX45Y45*%
G04 Gerber Fmt 4.5, Leading zero omitted, Abs format (unit mm)*
G04 Created by KiCad (PCBNEW (5.1.0)-1) date 2023-04-17 19:30:15*
%MOMM*%
%LPD*%
G04 APERTURE LIST*
%ADD10C,1.800000*%
%ADD11R,1.800000X1.800000*%
%ADD12R,3.000000X3.000000*%
%ADD13C,3.000000*%
%ADD14R,1.700000X1.700000*%
%ADD15O,1.700000X1.700000*%
%ADD16C,1.600000*%
%ADD17O,1.600000X1.600000*%
%ADD18R,1.600000X1.600000*%
%ADD19C,1.016000*%
%ADD20C,0.508000*%
%ADD21C,1.016000*%
G04 APERTURE END LIST*
D10*
X5842000Y8636000D03*
D11*
X5588000Y8636000D03*
D10*
X5842000Y7874000D03*
D11*
X5588000Y7874000D03*
D10*
X5842000Y7112000D03*
D11*
X5588000Y7112000D03*
X5588000Y6350000D03*
D10*
X5842000Y6350000D03*
X5842000Y5588000D03*
D11*
X5588000Y5588000D03*
X5588000Y4826000D03*
D10*
X5842000Y4826000D03*
X5842000Y4064000D03*
D11*
X5588000Y4064000D03*
D10*
X5842000Y3302000D03*
D11*
X5588000Y3302000D03*
X4826000Y8636000D03*
D10*
X5080000Y8636000D03*
D11*
X4826000Y7874000D03*
D10*
X5080000Y7874000D03*
D11*
X4826000Y7112000D03*
D10*
X5080000Y7112000D03*
X5080000Y6350000D03*
D11*
X4826000Y6350000D03*
X4826000Y5588000D03*
D10*
X5080000Y5588000D03*
X5080000Y4826000D03*
D11*
X4826000Y4826000D03*
D10*
X5080000Y4064000D03*
D11*
X4826000Y4064000D03*
D10*
X5080000Y3302000D03*
D11*
X4826000Y3302000D03*
D10*
X4318000Y8636000D03*
D11*
X4064000Y8636000D03*
D10*
X4318000Y7874000D03*
D11*
X4064000Y7874000D03*
D10*
X4318000Y7112000D03*
D11*
X4064000Y7112000D03*
X4064000Y6350000D03*
D10*
X4318000Y6350000D03*
X4318000Y5588000D03*
D11*
X4064000Y5588000D03*
X4064000Y4826000D03*
D10*
X4318000Y4826000D03*
D11*
X4064000Y4064000D03*
D10*
X4318000Y4064000D03*
D11*
X4064000Y3302000D03*
D10*
X4318000Y3302000D03*
D11*
X3302000Y8636000D03*
D10*
X3556000Y8636000D03*
D11*
X3302000Y7874000D03*
D10*
X3556000Y7874000D03*
D11*
X3302000Y7112000D03*
D10*
X3556000Y7112000D03*
X3556000Y6350000D03*
D11*
X3302000Y6350000D03*
X3302000Y5588000D03*
D10*
X3556000Y5588000D03*
D11*
X3302000Y4826000D03*
D10*
X3556000Y4826000D03*
X3556000Y4064000D03*
D11*
X3302000Y4064000D03*
D10*
X3556000Y3302000D03*
D11*
X3302000Y3302000D03*
D10*
X2794000Y8636000D03*
D11*
X2540000Y8636000D03*
D10*
X2794000Y7874000D03*
D11*
X2540000Y7874000D03*
D10*
X2794000Y7112000D03*
D11*
X2540000Y7112000D03*
X2540000Y6350000D03*
D10*
X2794000Y6350000D03*
X2794000Y5588000D03*
D11*
X2540000Y5588000D03*
D10*
X2794000Y4826000D03*
D11*
X2540000Y4826000D03*
X2540000Y4064000D03*
D10*
X2794000Y4064000D03*
D11*
X2540000Y3302000D03*
D10*
X2794000Y3302000D03*
D11*
X1778000Y8636000D03*
D10*
X2032000Y8636000D03*
D11*
X1778000Y7874000D03*
D10*
X2032000Y7874000D03*
D11*
X1778000Y7112000D03*
D10*
X2032000Y7112000D03*
D11*
X1778000Y6350000D03*
D10*
X2032000Y6350000D03*
D11*
X1778000Y5588000D03*
D10*
X2032000Y5588000D03*
D11*
X1778000Y4826000D03*
D10*
X2032000Y4826000D03*
X2032000Y4064000D03*
D11*
X1778000Y4064000D03*
D10*
X2032000Y3302000D03*
D11*
X1778000Y3302000D03*
D10*
X1270000Y8636000D03*
D11*
X1016000Y8636000D03*
D10*
X1270000Y7874000D03*
D11*
X1016000Y7874000D03*
D10*
X1270000Y7112000D03*
D11*
X1016000Y7112000D03*
D10*
X1270000Y6350000D03*
D11*
X1016000Y6350000D03*
D10*
X1270000Y5588000D03*
D11*
X1016000Y5588000D03*
D10*
X1270000Y4826000D03*
D11*
X1016000Y4826000D03*
X1016000Y4064000D03*
D10*
X1270000Y4064000D03*
D11*
X1016000Y3302000D03*
D10*
X1270000Y3302000D03*
D11*
X254000Y8636000D03*
D10*
X508000Y8636000D03*
D11*
X254000Y7874000D03*
D10*
X508000Y7874000D03*
D11*
X254000Y7112000D03*
D10*
X508000Y7112000D03*
D11*
X254000Y6350000D03*
D10*
X508000Y6350000D03*
D11*
X254000Y5588000D03*
D10*
X508000Y5588000D03*
D11*
X254000Y4826000D03*
D10*
X508000Y4826000D03*
X508000Y4064000D03*
D11*
X254000Y4064000D03*
D10*
X508000Y3302000D03*
D11*
X254000Y3302000D03*
D12*
X1270000Y1219200D03*
D13*
X762000Y1219200D03*
D14*
X4445000Y965200D03*
D15*
X4445000Y1219200D03*
X4191000Y965200D03*
X4191000Y1219200D03*
X3937000Y965200D03*
X3937000Y1219200D03*
D16*
X1270000Y1841500D03*
D17*
X1270000Y2603500D03*
D18*
X4445000Y2603500D03*
D17*
X1651000Y1841500D03*
X4191000Y2603500D03*
X1905000Y1841500D03*
X3937000Y2603500D03*
X2159000Y1841500D03*
X3683000Y2603500D03*
X2413000Y1841500D03*
X3429000Y2603500D03*
X2667000Y1841500D03*
X3175000Y2603500D03*
X2921000Y1841500D03*
X2921000Y2603500D03*
X3175000Y1841500D03*
X2667000Y2603500D03*
X3429000Y1841500D03*
X2413000Y2603500D03*
X3683000Y1841500D03*
X2159000Y2603500D03*
X3937000Y1841500D03*
X1905000Y2603500D03*
X4191000Y1841500D03*
X1651000Y2603500D03*
X4445000Y1841500D03*
D18*
X2565400Y1219200D03*
D16*
X2565400Y969200D03*
X3175000Y1219200D03*
X3175000Y969200D03*
D19*
X5080000Y1574800D03*
X1447800Y2387600D03*
D20*
X5842000Y2870200D02*
X5842000Y3302000D01*
X4648200Y1676400D02*
X5842000Y2870200D01*
X2692400Y1676400D02*
X4648200Y1676400D01*
X2667000Y1841500D02*
X2667000Y1701800D01*
X2667000Y1701800D02*
X2692400Y1676400D01*
D21*
X5842000Y8636000D02*
X5842000Y3302000D01*
D20*
X5334000Y8382000D02*
X5588000Y8636000D01*
X5334000Y2946400D02*
X5334000Y8382000D01*
X5181600Y2794000D02*
X5334000Y2946400D01*
X4191000Y2603500D02*
X4191000Y2743200D01*
X4191000Y2743200D02*
X4241800Y2794000D01*
X4241800Y2794000D02*
X5181600Y2794000D01*
X762000Y7620000D02*
X1016000Y7874000D01*
X762000Y2921000D02*
X762000Y7620000D01*
X914400Y2768600D02*
X762000Y2921000D01*
X1879600Y2768600D02*
X914400Y2768600D01*
X1905000Y2743200D02*
X1879600Y2768600D01*
X1905000Y2603500D02*
X1905000Y2743200D01*
X3175000Y2603500D02*
X3175000Y2844800D01*
X3175000Y2844800D02*
X3276600Y2946400D01*
X3657600Y2946400D02*
X3759200Y3048000D01*
X3276600Y2946400D02*
X3657600Y2946400D01*
X3759200Y3048000D02*
X3759200Y3911600D01*
X3759200Y3911600D02*
X3810000Y3962400D01*
X3810000Y6858000D02*
X4064000Y7112000D01*
X3810000Y3962400D02*
X3810000Y6858000D01*
X2921000Y2603500D02*
X2921000Y2794000D01*
X2921000Y2794000D02*
X3048000Y2921000D01*
X3048000Y6096000D02*
X3302000Y6350000D01*
X3048000Y2921000D02*
X3048000Y6096000D01*
X3937000Y2603500D02*
X3937000Y2768600D01*
X3937000Y2768600D02*
X4064000Y2895600D01*
X4064000Y2895600D02*
X4495800Y2895600D01*
X4495800Y2895600D02*
X4572000Y2971800D01*
X4572000Y5334000D02*
X4826000Y5588000D01*
X4572000Y2971800D02*
X4572000Y5334000D01*
X1524000Y4572000D02*
X1778000Y4826000D01*
X1600200Y2971800D02*
X1524000Y3048000D01*
X1524000Y3048000D02*
X1524000Y4572000D01*
X2159000Y2603500D02*
X2159000Y2819400D01*
X2006600Y2971800D02*
X1600200Y2971800D01*
X2159000Y2819400D02*
X2006600Y2971800D01*
X3860800Y3860800D02*
X4064000Y4064000D01*
X3429000Y2603500D02*
X3429000Y2768600D01*
X3429000Y2768600D02*
X3505200Y2844800D01*
X3708400Y2844800D02*
X3860800Y2997200D01*
X3505200Y2844800D02*
X3708400Y2844800D01*
X3860800Y2997200D02*
X3860800Y3860800D01*
X2667000Y2603500D02*
X2667000Y2768600D01*
X2540000Y2895600D02*
X2540000Y3302000D01*
X2667000Y2768600D02*
X2540000Y2895600D01*
X2159000Y1841500D02*
X2159000Y1625600D01*
X2159000Y1625600D02*
X2209800Y1574800D01*
X2209800Y1574800D02*
X5080000Y1574800D01*
D21*
X5080000Y8636000D02*
X5080000Y3302000D01*
D20*
X4318000Y3048000D02*
X4318000Y3302000D01*
X3683000Y1841500D02*
X3683000Y2260600D01*
X3683000Y2260600D02*
X3810000Y2387600D01*
X3810000Y2387600D02*
X3810000Y2794000D01*
X3810000Y2794000D02*
X4013200Y2997200D01*
X4013200Y2997200D02*
X4267200Y2997200D01*
X4267200Y2997200D02*
X4318000Y3048000D01*
D21*
X4318000Y8636000D02*
X4318000Y3302000D01*
X3556000Y8636000D02*
X3556000Y3302000D01*
D20*
X3429000Y1841500D02*
X3429000Y2082800D01*
X3429000Y2082800D02*
X3352800Y2159000D01*
X3352800Y2159000D02*
X2921000Y2159000D01*
X2921000Y2159000D02*
X2794000Y2286000D01*
X2794000Y2286000D02*
X2794000Y3302000D01*
D21*
X2794000Y8636000D02*
X2794000Y3302000D01*
D20*
X2413000Y2057400D02*
X2413000Y1841500D01*
X2286000Y2184400D02*
X2413000Y2057400D01*
X2032000Y3124200D02*
X2286000Y2870200D01*
X2032000Y3302000D02*
X2032000Y3124200D01*
X2286000Y2870200D02*
X2286000Y2184400D01*
D21*
X2032000Y8636000D02*
X2032000Y3302000D01*
D20*
X1905000Y2082800D02*
X1905000Y1841500D01*
X1270000Y2971800D02*
X1371600Y2870200D01*
X1270000Y3302000D02*
X1270000Y2971800D01*
X1371600Y2870200D02*
X1955800Y2870200D01*
X1955800Y2870200D02*
X2032000Y2794000D01*
X2032000Y2794000D02*
X2032000Y2209800D01*
X2032000Y2209800D02*
X1905000Y2082800D01*
D21*
X1270000Y8636000D02*
X1270000Y3302000D01*
D20*
X508000Y3302000D02*
X508000Y2895600D01*
X508000Y2895600D02*
X1016000Y2387600D01*
X1016000Y2387600D02*
X1447800Y2387600D01*
D21*
X508000Y8636000D02*
X508000Y3302000D01*
D20*
X4191000Y787400D02*
X4191000Y965200D01*
X4127500Y723900D02*
X4191000Y787400D01*
X3695700Y723900D02*
X4127500Y723900D01*
X1651000Y2603500D02*
X1651000Y2336800D01*
X1651000Y2336800D02*
X1473200Y2159000D01*
X3632200Y787400D02*
X3695700Y723900D01*
X1473200Y2159000D02*
X1473200Y1600200D01*
X1473200Y1600200D02*
X1701800Y1371600D01*
X1701800Y1371600D02*
X3429000Y1371600D01*
X3632200Y1168400D02*
X3632200Y787400D01*
X3429000Y1371600D02*
X3632200Y1168400D01*
X1651000Y1651000D02*
X1828800Y1473200D01*
X1651000Y1841500D02*
X1651000Y1651000D01*
X4191000Y1219200D02*
X4191000Y1397000D01*
X4191000Y1397000D02*
X4114800Y1473200D01*
X4114800Y1473200D02*
X1828800Y1473200D01*
M02*
