G04 #@! TF.GenerationSoftware,KiCad,Pcbnew,(5.1.0)-1*
G04 #@! TF.CreationDate,2023-04-17T19:30:15-07:00*
G04 #@! TF.ProjectId,LED_Matrix_7219,4c45445f-4d61-4747-9269-785f37323139,rev?*
G04 #@! TF.SameCoordinates,PXffd93e20PY525bfc0*
G04 #@! TF.FileFunction,Legend,Top*
G04 #@! TF.FilePolarity,Positive*
%FSLAX45Y45*%
G04 Gerber Fmt 4.5, Leading zero omitted, Abs format (unit mm)*
G04 Created by KiCad (PCBNEW (5.1.0)-1) date 2023-04-17 19:30:15*
%MOMM*%
%LPD*%
G04 APERTURE LIST*
%ADD10C,0.150000*%
%ADD11C,0.203200*%
%ADD12C,0.120000*%
%ADD13C,1.902000*%
%ADD14R,1.902000X1.902000*%
%ADD15C,2.802000*%
%ADD16R,3.102000X3.102000*%
%ADD17C,3.102000*%
%ADD18R,1.802000X1.802000*%
%ADD19O,1.802000X1.802000*%
%ADD20C,1.702000*%
%ADD21O,1.702000X1.702000*%
%ADD22R,1.702000X1.702000*%
G04 APERTURE END LIST*
D10*
X4325190Y208762D02*
X4325190Y308762D01*
X4349000Y308762D01*
X4363286Y304000D01*
X4372810Y294476D01*
X4377571Y284952D01*
X4382333Y265905D01*
X4382333Y251619D01*
X4377571Y232571D01*
X4372810Y223048D01*
X4363286Y213524D01*
X4349000Y208762D01*
X4325190Y208762D01*
X4425190Y208762D02*
X4425190Y308762D01*
X4458524Y237333D01*
X4491857Y308762D01*
X4491857Y208762D01*
X4534714Y237333D02*
X4582333Y237333D01*
X4525190Y208762D02*
X4558524Y308762D01*
X4591857Y208762D01*
X4629952Y213524D02*
X4629952Y208762D01*
X4625190Y199238D01*
X4620429Y194476D01*
X4806143Y208762D02*
X4772810Y256381D01*
X4749000Y208762D02*
X4749000Y308762D01*
X4787095Y308762D01*
X4796619Y304000D01*
X4801381Y299238D01*
X4806143Y289714D01*
X4806143Y275429D01*
X4801381Y265905D01*
X4796619Y261143D01*
X4787095Y256381D01*
X4749000Y256381D01*
X4849000Y261143D02*
X4882333Y261143D01*
X4896619Y208762D02*
X4849000Y208762D01*
X4849000Y308762D01*
X4896619Y308762D01*
X4925190Y308762D02*
X4958524Y208762D01*
X4991857Y308762D01*
X5020429Y299238D02*
X5025190Y304000D01*
X5034714Y308762D01*
X5058524Y308762D01*
X5068048Y304000D01*
X5072810Y299238D01*
X5077571Y289714D01*
X5077571Y280191D01*
X5072810Y265905D01*
X5015667Y208762D01*
X5077571Y208762D01*
D11*
X2873828Y9441543D02*
X2719010Y9383486D01*
X2873828Y9325429D01*
X2970590Y9383486D02*
X3125409Y9383486D01*
X3222171Y9383486D02*
X3376990Y9383486D01*
X2873828Y297543D02*
X2719010Y239486D01*
X2873828Y181429D01*
X2970590Y239486D02*
X3125409Y239486D01*
X3222171Y239486D02*
X3376990Y239486D01*
D12*
X5459000Y8790500D02*
X5459000Y8481500D01*
X5965000Y8636000D02*
G75*
G03X5965000Y8636000I-250000J0D01*
G01*
X6014000Y8636046D02*
G75*
G02X5459000Y8481517I-299000J-46D01*
G01*
X6014000Y8635954D02*
G75*
G03X5459000Y8790483I-299000J46D01*
G01*
X5459000Y8028500D02*
X5459000Y7719500D01*
X5965000Y7874000D02*
G75*
G03X5965000Y7874000I-250000J0D01*
G01*
X6014000Y7874046D02*
G75*
G02X5459000Y7719517I-299000J-46D01*
G01*
X6014000Y7873954D02*
G75*
G03X5459000Y8028483I-299000J46D01*
G01*
X5459000Y7266500D02*
X5459000Y6957500D01*
X5965000Y7112000D02*
G75*
G03X5965000Y7112000I-250000J0D01*
G01*
X6014000Y7112046D02*
G75*
G02X5459000Y6957517I-299000J-46D01*
G01*
X6014000Y7111954D02*
G75*
G03X5459000Y7266483I-299000J46D01*
G01*
X6014000Y6349954D02*
G75*
G03X5459000Y6504483I-299000J46D01*
G01*
X6014000Y6350046D02*
G75*
G02X5459000Y6195517I-299000J-46D01*
G01*
X5965000Y6350000D02*
G75*
G03X5965000Y6350000I-250000J0D01*
G01*
X5459000Y6504500D02*
X5459000Y6195500D01*
X5459000Y5742500D02*
X5459000Y5433500D01*
X5965000Y5588000D02*
G75*
G03X5965000Y5588000I-250000J0D01*
G01*
X6014000Y5588046D02*
G75*
G02X5459000Y5433517I-299000J-46D01*
G01*
X6014000Y5587954D02*
G75*
G03X5459000Y5742483I-299000J46D01*
G01*
X6014000Y4825954D02*
G75*
G03X5459000Y4980483I-299000J46D01*
G01*
X6014000Y4826046D02*
G75*
G02X5459000Y4671517I-299000J-46D01*
G01*
X5965000Y4826000D02*
G75*
G03X5965000Y4826000I-250000J0D01*
G01*
X5459000Y4980500D02*
X5459000Y4671500D01*
X5459000Y4218500D02*
X5459000Y3909500D01*
X5965000Y4064000D02*
G75*
G03X5965000Y4064000I-250000J0D01*
G01*
X6014000Y4064046D02*
G75*
G02X5459000Y3909517I-299000J-46D01*
G01*
X6014000Y4063954D02*
G75*
G03X5459000Y4218483I-299000J46D01*
G01*
X5459000Y3456500D02*
X5459000Y3147500D01*
X5965000Y3302000D02*
G75*
G03X5965000Y3302000I-250000J0D01*
G01*
X6014000Y3302046D02*
G75*
G02X5459000Y3147517I-299000J-46D01*
G01*
X6014000Y3301954D02*
G75*
G03X5459000Y3456483I-299000J46D01*
G01*
X5252000Y8635954D02*
G75*
G03X4697000Y8790483I-299000J46D01*
G01*
X5252000Y8636046D02*
G75*
G02X4697000Y8481517I-299000J-46D01*
G01*
X5203000Y8636000D02*
G75*
G03X5203000Y8636000I-250000J0D01*
G01*
X4697000Y8790500D02*
X4697000Y8481500D01*
X5252000Y7873954D02*
G75*
G03X4697000Y8028483I-299000J46D01*
G01*
X5252000Y7874046D02*
G75*
G02X4697000Y7719517I-299000J-46D01*
G01*
X5203000Y7874000D02*
G75*
G03X5203000Y7874000I-250000J0D01*
G01*
X4697000Y8028500D02*
X4697000Y7719500D01*
X5252000Y7111954D02*
G75*
G03X4697000Y7266483I-299000J46D01*
G01*
X5252000Y7112046D02*
G75*
G02X4697000Y6957517I-299000J-46D01*
G01*
X5203000Y7112000D02*
G75*
G03X5203000Y7112000I-250000J0D01*
G01*
X4697000Y7266500D02*
X4697000Y6957500D01*
X4697000Y6504500D02*
X4697000Y6195500D01*
X5203000Y6350000D02*
G75*
G03X5203000Y6350000I-250000J0D01*
G01*
X5252000Y6350046D02*
G75*
G02X4697000Y6195517I-299000J-46D01*
G01*
X5252000Y6349954D02*
G75*
G03X4697000Y6504483I-299000J46D01*
G01*
X5252000Y5587954D02*
G75*
G03X4697000Y5742483I-299000J46D01*
G01*
X5252000Y5588046D02*
G75*
G02X4697000Y5433517I-299000J-46D01*
G01*
X5203000Y5588000D02*
G75*
G03X5203000Y5588000I-250000J0D01*
G01*
X4697000Y5742500D02*
X4697000Y5433500D01*
X4697000Y4980500D02*
X4697000Y4671500D01*
X5203000Y4826000D02*
G75*
G03X5203000Y4826000I-250000J0D01*
G01*
X5252000Y4826046D02*
G75*
G02X4697000Y4671517I-299000J-46D01*
G01*
X5252000Y4825954D02*
G75*
G03X4697000Y4980483I-299000J46D01*
G01*
X4697000Y4218500D02*
X4697000Y3909500D01*
X5203000Y4064000D02*
G75*
G03X5203000Y4064000I-250000J0D01*
G01*
X5252000Y4064046D02*
G75*
G02X4697000Y3909517I-299000J-46D01*
G01*
X5252000Y4063954D02*
G75*
G03X4697000Y4218483I-299000J46D01*
G01*
X4697000Y3456500D02*
X4697000Y3147500D01*
X5203000Y3302000D02*
G75*
G03X5203000Y3302000I-250000J0D01*
G01*
X5252000Y3302046D02*
G75*
G02X4697000Y3147517I-299000J-46D01*
G01*
X5252000Y3301954D02*
G75*
G03X4697000Y3456483I-299000J46D01*
G01*
X3935000Y8790500D02*
X3935000Y8481500D01*
X4441000Y8636000D02*
G75*
G03X4441000Y8636000I-250000J0D01*
G01*
X4490000Y8636046D02*
G75*
G02X3935000Y8481517I-299000J-46D01*
G01*
X4490000Y8635954D02*
G75*
G03X3935000Y8790483I-299000J46D01*
G01*
X3935000Y8028500D02*
X3935000Y7719500D01*
X4441000Y7874000D02*
G75*
G03X4441000Y7874000I-250000J0D01*
G01*
X4490000Y7874046D02*
G75*
G02X3935000Y7719517I-299000J-46D01*
G01*
X4490000Y7873954D02*
G75*
G03X3935000Y8028483I-299000J46D01*
G01*
X3935000Y7266500D02*
X3935000Y6957500D01*
X4441000Y7112000D02*
G75*
G03X4441000Y7112000I-250000J0D01*
G01*
X4490000Y7112046D02*
G75*
G02X3935000Y6957517I-299000J-46D01*
G01*
X4490000Y7111954D02*
G75*
G03X3935000Y7266483I-299000J46D01*
G01*
X4490000Y6349954D02*
G75*
G03X3935000Y6504483I-299000J46D01*
G01*
X4490000Y6350046D02*
G75*
G02X3935000Y6195517I-299000J-46D01*
G01*
X4441000Y6350000D02*
G75*
G03X4441000Y6350000I-250000J0D01*
G01*
X3935000Y6504500D02*
X3935000Y6195500D01*
X3935000Y5742500D02*
X3935000Y5433500D01*
X4441000Y5588000D02*
G75*
G03X4441000Y5588000I-250000J0D01*
G01*
X4490000Y5588046D02*
G75*
G02X3935000Y5433517I-299000J-46D01*
G01*
X4490000Y5587954D02*
G75*
G03X3935000Y5742483I-299000J46D01*
G01*
X4490000Y4825954D02*
G75*
G03X3935000Y4980483I-299000J46D01*
G01*
X4490000Y4826046D02*
G75*
G02X3935000Y4671517I-299000J-46D01*
G01*
X4441000Y4826000D02*
G75*
G03X4441000Y4826000I-250000J0D01*
G01*
X3935000Y4980500D02*
X3935000Y4671500D01*
X4490000Y4063954D02*
G75*
G03X3935000Y4218483I-299000J46D01*
G01*
X4490000Y4064046D02*
G75*
G02X3935000Y3909517I-299000J-46D01*
G01*
X4441000Y4064000D02*
G75*
G03X4441000Y4064000I-250000J0D01*
G01*
X3935000Y4218500D02*
X3935000Y3909500D01*
X4490000Y3301954D02*
G75*
G03X3935000Y3456483I-299000J46D01*
G01*
X4490000Y3302046D02*
G75*
G02X3935000Y3147517I-299000J-46D01*
G01*
X4441000Y3302000D02*
G75*
G03X4441000Y3302000I-250000J0D01*
G01*
X3935000Y3456500D02*
X3935000Y3147500D01*
X3728000Y8635954D02*
G75*
G03X3173000Y8790483I-299000J46D01*
G01*
X3728000Y8636046D02*
G75*
G02X3173000Y8481517I-299000J-46D01*
G01*
X3679000Y8636000D02*
G75*
G03X3679000Y8636000I-250000J0D01*
G01*
X3173000Y8790500D02*
X3173000Y8481500D01*
X3728000Y7873954D02*
G75*
G03X3173000Y8028483I-299000J46D01*
G01*
X3728000Y7874046D02*
G75*
G02X3173000Y7719517I-299000J-46D01*
G01*
X3679000Y7874000D02*
G75*
G03X3679000Y7874000I-250000J0D01*
G01*
X3173000Y8028500D02*
X3173000Y7719500D01*
X3728000Y7111954D02*
G75*
G03X3173000Y7266483I-299000J46D01*
G01*
X3728000Y7112046D02*
G75*
G02X3173000Y6957517I-299000J-46D01*
G01*
X3679000Y7112000D02*
G75*
G03X3679000Y7112000I-250000J0D01*
G01*
X3173000Y7266500D02*
X3173000Y6957500D01*
X3173000Y6504500D02*
X3173000Y6195500D01*
X3679000Y6350000D02*
G75*
G03X3679000Y6350000I-250000J0D01*
G01*
X3728000Y6350046D02*
G75*
G02X3173000Y6195517I-299000J-46D01*
G01*
X3728000Y6349954D02*
G75*
G03X3173000Y6504483I-299000J46D01*
G01*
X3728000Y5587954D02*
G75*
G03X3173000Y5742483I-299000J46D01*
G01*
X3728000Y5588046D02*
G75*
G02X3173000Y5433517I-299000J-46D01*
G01*
X3679000Y5588000D02*
G75*
G03X3679000Y5588000I-250000J0D01*
G01*
X3173000Y5742500D02*
X3173000Y5433500D01*
X3728000Y4825954D02*
G75*
G03X3173000Y4980483I-299000J46D01*
G01*
X3728000Y4826046D02*
G75*
G02X3173000Y4671517I-299000J-46D01*
G01*
X3679000Y4826000D02*
G75*
G03X3679000Y4826000I-250000J0D01*
G01*
X3173000Y4980500D02*
X3173000Y4671500D01*
X3173000Y4218500D02*
X3173000Y3909500D01*
X3679000Y4064000D02*
G75*
G03X3679000Y4064000I-250000J0D01*
G01*
X3728000Y4064046D02*
G75*
G02X3173000Y3909517I-299000J-46D01*
G01*
X3728000Y4063954D02*
G75*
G03X3173000Y4218483I-299000J46D01*
G01*
X3173000Y3456500D02*
X3173000Y3147500D01*
X3679000Y3302000D02*
G75*
G03X3679000Y3302000I-250000J0D01*
G01*
X3728000Y3302046D02*
G75*
G02X3173000Y3147517I-299000J-46D01*
G01*
X3728000Y3301954D02*
G75*
G03X3173000Y3456483I-299000J46D01*
G01*
X2411000Y8790500D02*
X2411000Y8481500D01*
X2917000Y8636000D02*
G75*
G03X2917000Y8636000I-250000J0D01*
G01*
X2966000Y8636046D02*
G75*
G02X2411000Y8481517I-299000J-46D01*
G01*
X2966000Y8635954D02*
G75*
G03X2411000Y8790483I-299000J46D01*
G01*
X2411000Y8028500D02*
X2411000Y7719500D01*
X2917000Y7874000D02*
G75*
G03X2917000Y7874000I-250000J0D01*
G01*
X2966000Y7874046D02*
G75*
G02X2411000Y7719517I-299000J-46D01*
G01*
X2966000Y7873954D02*
G75*
G03X2411000Y8028483I-299000J46D01*
G01*
X2411000Y7266500D02*
X2411000Y6957500D01*
X2917000Y7112000D02*
G75*
G03X2917000Y7112000I-250000J0D01*
G01*
X2966000Y7112046D02*
G75*
G02X2411000Y6957517I-299000J-46D01*
G01*
X2966000Y7111954D02*
G75*
G03X2411000Y7266483I-299000J46D01*
G01*
X2966000Y6349954D02*
G75*
G03X2411000Y6504483I-299000J46D01*
G01*
X2966000Y6350046D02*
G75*
G02X2411000Y6195517I-299000J-46D01*
G01*
X2917000Y6350000D02*
G75*
G03X2917000Y6350000I-250000J0D01*
G01*
X2411000Y6504500D02*
X2411000Y6195500D01*
X2411000Y5742500D02*
X2411000Y5433500D01*
X2917000Y5588000D02*
G75*
G03X2917000Y5588000I-250000J0D01*
G01*
X2966000Y5588046D02*
G75*
G02X2411000Y5433517I-299000J-46D01*
G01*
X2966000Y5587954D02*
G75*
G03X2411000Y5742483I-299000J46D01*
G01*
X2411000Y4980500D02*
X2411000Y4671500D01*
X2917000Y4826000D02*
G75*
G03X2917000Y4826000I-250000J0D01*
G01*
X2966000Y4826046D02*
G75*
G02X2411000Y4671517I-299000J-46D01*
G01*
X2966000Y4825954D02*
G75*
G03X2411000Y4980483I-299000J46D01*
G01*
X2966000Y4063954D02*
G75*
G03X2411000Y4218483I-299000J46D01*
G01*
X2966000Y4064046D02*
G75*
G02X2411000Y3909517I-299000J-46D01*
G01*
X2917000Y4064000D02*
G75*
G03X2917000Y4064000I-250000J0D01*
G01*
X2411000Y4218500D02*
X2411000Y3909500D01*
X2966000Y3301954D02*
G75*
G03X2411000Y3456483I-299000J46D01*
G01*
X2966000Y3302046D02*
G75*
G02X2411000Y3147517I-299000J-46D01*
G01*
X2917000Y3302000D02*
G75*
G03X2917000Y3302000I-250000J0D01*
G01*
X2411000Y3456500D02*
X2411000Y3147500D01*
X2204000Y8635954D02*
G75*
G03X1649000Y8790483I-299000J46D01*
G01*
X2204000Y8636046D02*
G75*
G02X1649000Y8481517I-299000J-46D01*
G01*
X2155000Y8636000D02*
G75*
G03X2155000Y8636000I-250000J0D01*
G01*
X1649000Y8790500D02*
X1649000Y8481500D01*
X2204000Y7873954D02*
G75*
G03X1649000Y8028483I-299000J46D01*
G01*
X2204000Y7874046D02*
G75*
G02X1649000Y7719517I-299000J-46D01*
G01*
X2155000Y7874000D02*
G75*
G03X2155000Y7874000I-250000J0D01*
G01*
X1649000Y8028500D02*
X1649000Y7719500D01*
X2204000Y7111954D02*
G75*
G03X1649000Y7266483I-299000J46D01*
G01*
X2204000Y7112046D02*
G75*
G02X1649000Y6957517I-299000J-46D01*
G01*
X2155000Y7112000D02*
G75*
G03X2155000Y7112000I-250000J0D01*
G01*
X1649000Y7266500D02*
X1649000Y6957500D01*
X2204000Y6349954D02*
G75*
G03X1649000Y6504483I-299000J46D01*
G01*
X2204000Y6350046D02*
G75*
G02X1649000Y6195517I-299000J-46D01*
G01*
X2155000Y6350000D02*
G75*
G03X2155000Y6350000I-250000J0D01*
G01*
X1649000Y6504500D02*
X1649000Y6195500D01*
X2204000Y5587954D02*
G75*
G03X1649000Y5742483I-299000J46D01*
G01*
X2204000Y5588046D02*
G75*
G02X1649000Y5433517I-299000J-46D01*
G01*
X2155000Y5588000D02*
G75*
G03X2155000Y5588000I-250000J0D01*
G01*
X1649000Y5742500D02*
X1649000Y5433500D01*
X2204000Y4825954D02*
G75*
G03X1649000Y4980483I-299000J46D01*
G01*
X2204000Y4826046D02*
G75*
G02X1649000Y4671517I-299000J-46D01*
G01*
X2155000Y4826000D02*
G75*
G03X2155000Y4826000I-250000J0D01*
G01*
X1649000Y4980500D02*
X1649000Y4671500D01*
X1649000Y4218500D02*
X1649000Y3909500D01*
X2155000Y4064000D02*
G75*
G03X2155000Y4064000I-250000J0D01*
G01*
X2204000Y4064046D02*
G75*
G02X1649000Y3909517I-299000J-46D01*
G01*
X2204000Y4063954D02*
G75*
G03X1649000Y4218483I-299000J46D01*
G01*
X1649000Y3456500D02*
X1649000Y3147500D01*
X2155000Y3302000D02*
G75*
G03X2155000Y3302000I-250000J0D01*
G01*
X2204000Y3302046D02*
G75*
G02X1649000Y3147517I-299000J-46D01*
G01*
X2204000Y3301954D02*
G75*
G03X1649000Y3456483I-299000J46D01*
G01*
X887000Y8790500D02*
X887000Y8481500D01*
X1393000Y8636000D02*
G75*
G03X1393000Y8636000I-250000J0D01*
G01*
X1442000Y8636046D02*
G75*
G02X887000Y8481517I-299000J-46D01*
G01*
X1442000Y8635954D02*
G75*
G03X887000Y8790483I-299000J46D01*
G01*
X887000Y8028500D02*
X887000Y7719500D01*
X1393000Y7874000D02*
G75*
G03X1393000Y7874000I-250000J0D01*
G01*
X1442000Y7874046D02*
G75*
G02X887000Y7719517I-299000J-46D01*
G01*
X1442000Y7873954D02*
G75*
G03X887000Y8028483I-299000J46D01*
G01*
X887000Y7266500D02*
X887000Y6957500D01*
X1393000Y7112000D02*
G75*
G03X1393000Y7112000I-250000J0D01*
G01*
X1442000Y7112046D02*
G75*
G02X887000Y6957517I-299000J-46D01*
G01*
X1442000Y7111954D02*
G75*
G03X887000Y7266483I-299000J46D01*
G01*
X887000Y6504500D02*
X887000Y6195500D01*
X1393000Y6350000D02*
G75*
G03X1393000Y6350000I-250000J0D01*
G01*
X1442000Y6350046D02*
G75*
G02X887000Y6195517I-299000J-46D01*
G01*
X1442000Y6349954D02*
G75*
G03X887000Y6504483I-299000J46D01*
G01*
X887000Y5742500D02*
X887000Y5433500D01*
X1393000Y5588000D02*
G75*
G03X1393000Y5588000I-250000J0D01*
G01*
X1442000Y5588046D02*
G75*
G02X887000Y5433517I-299000J-46D01*
G01*
X1442000Y5587954D02*
G75*
G03X887000Y5742483I-299000J46D01*
G01*
X887000Y4980500D02*
X887000Y4671500D01*
X1393000Y4826000D02*
G75*
G03X1393000Y4826000I-250000J0D01*
G01*
X1442000Y4826046D02*
G75*
G02X887000Y4671517I-299000J-46D01*
G01*
X1442000Y4825954D02*
G75*
G03X887000Y4980483I-299000J46D01*
G01*
X1442000Y4063954D02*
G75*
G03X887000Y4218483I-299000J46D01*
G01*
X1442000Y4064046D02*
G75*
G02X887000Y3909517I-299000J-46D01*
G01*
X1393000Y4064000D02*
G75*
G03X1393000Y4064000I-250000J0D01*
G01*
X887000Y4218500D02*
X887000Y3909500D01*
X1442000Y3301954D02*
G75*
G03X887000Y3456483I-299000J46D01*
G01*
X1442000Y3302046D02*
G75*
G02X887000Y3147517I-299000J-46D01*
G01*
X1393000Y3302000D02*
G75*
G03X1393000Y3302000I-250000J0D01*
G01*
X887000Y3456500D02*
X887000Y3147500D01*
X680000Y8635954D02*
G75*
G03X125000Y8790483I-299000J46D01*
G01*
X680000Y8636046D02*
G75*
G02X125000Y8481517I-299000J-46D01*
G01*
X631000Y8636000D02*
G75*
G03X631000Y8636000I-250000J0D01*
G01*
X125000Y8790500D02*
X125000Y8481500D01*
X680000Y7873954D02*
G75*
G03X125000Y8028483I-299000J46D01*
G01*
X680000Y7874046D02*
G75*
G02X125000Y7719517I-299000J-46D01*
G01*
X631000Y7874000D02*
G75*
G03X631000Y7874000I-250000J0D01*
G01*
X125000Y8028500D02*
X125000Y7719500D01*
X680000Y7111954D02*
G75*
G03X125000Y7266483I-299000J46D01*
G01*
X680000Y7112046D02*
G75*
G02X125000Y6957517I-299000J-46D01*
G01*
X631000Y7112000D02*
G75*
G03X631000Y7112000I-250000J0D01*
G01*
X125000Y7266500D02*
X125000Y6957500D01*
X680000Y6349954D02*
G75*
G03X125000Y6504483I-299000J46D01*
G01*
X680000Y6350046D02*
G75*
G02X125000Y6195517I-299000J-46D01*
G01*
X631000Y6350000D02*
G75*
G03X631000Y6350000I-250000J0D01*
G01*
X125000Y6504500D02*
X125000Y6195500D01*
X680000Y5587954D02*
G75*
G03X125000Y5742483I-299000J46D01*
G01*
X680000Y5588046D02*
G75*
G02X125000Y5433517I-299000J-46D01*
G01*
X631000Y5588000D02*
G75*
G03X631000Y5588000I-250000J0D01*
G01*
X125000Y5742500D02*
X125000Y5433500D01*
X680000Y4825954D02*
G75*
G03X125000Y4980483I-299000J46D01*
G01*
X680000Y4826046D02*
G75*
G02X125000Y4671517I-299000J-46D01*
G01*
X631000Y4826000D02*
G75*
G03X631000Y4826000I-250000J0D01*
G01*
X125000Y4980500D02*
X125000Y4671500D01*
X125000Y4218500D02*
X125000Y3909500D01*
X631000Y4064000D02*
G75*
G03X631000Y4064000I-250000J0D01*
G01*
X680000Y4064046D02*
G75*
G02X125000Y3909517I-299000J-46D01*
G01*
X680000Y4063954D02*
G75*
G03X125000Y4218483I-299000J46D01*
G01*
X125000Y3456500D02*
X125000Y3147500D01*
X631000Y3302000D02*
G75*
G03X631000Y3302000I-250000J0D01*
G01*
X680000Y3302046D02*
G75*
G02X125000Y3147517I-299000J-46D01*
G01*
X680000Y3301954D02*
G75*
G03X125000Y3456483I-299000J46D01*
G01*
X1166000Y1895500D02*
X1133000Y1895500D01*
X1133000Y1895500D02*
X1133000Y2549500D01*
X1133000Y2549500D02*
X1166000Y2549500D01*
X1374000Y1895500D02*
X1407000Y1895500D01*
X1407000Y1895500D02*
X1407000Y2549500D01*
X1407000Y2549500D02*
X1374000Y2549500D01*
X4578000Y2122500D02*
G75*
G02X4578000Y2322500I0J100000D01*
G01*
X4578000Y2322500D02*
X4578000Y2487500D01*
X4578000Y2487500D02*
X1518000Y2487500D01*
X1518000Y2487500D02*
X1518000Y1957500D01*
X1518000Y1957500D02*
X4578000Y1957500D01*
X4578000Y1957500D02*
X4578000Y2122500D01*
X2827400Y1094200D02*
G75*
G03X2827400Y1094200I-262000J0D01*
G01*
X2823400Y1094200D02*
X2307400Y1094200D01*
X2823400Y1090200D02*
X2307400Y1090200D01*
X2823300Y1086200D02*
X2307500Y1086200D01*
X2823200Y1082200D02*
X2307600Y1082200D01*
X2823000Y1078200D02*
X2307800Y1078200D01*
X2822700Y1074200D02*
X2308100Y1074200D01*
X2822300Y1070200D02*
X2669400Y1070200D01*
X2461400Y1070200D02*
X2308500Y1070200D01*
X2821900Y1066200D02*
X2669400Y1066200D01*
X2461400Y1066200D02*
X2308900Y1066200D01*
X2821500Y1062200D02*
X2669400Y1062200D01*
X2461400Y1062200D02*
X2309300Y1062200D01*
X2821000Y1058200D02*
X2669400Y1058200D01*
X2461400Y1058200D02*
X2309800Y1058200D01*
X2820400Y1054200D02*
X2669400Y1054200D01*
X2461400Y1054200D02*
X2310400Y1054200D01*
X2819700Y1050200D02*
X2669400Y1050200D01*
X2461400Y1050200D02*
X2311100Y1050200D01*
X2819000Y1046200D02*
X2669400Y1046200D01*
X2461400Y1046200D02*
X2311800Y1046200D01*
X2818200Y1042200D02*
X2669400Y1042200D01*
X2461400Y1042200D02*
X2312600Y1042200D01*
X2817400Y1038200D02*
X2669400Y1038200D01*
X2461400Y1038200D02*
X2313400Y1038200D01*
X2816500Y1034200D02*
X2669400Y1034200D01*
X2461400Y1034200D02*
X2314300Y1034200D01*
X2815500Y1030200D02*
X2669400Y1030200D01*
X2461400Y1030200D02*
X2315300Y1030200D01*
X2814500Y1026200D02*
X2669400Y1026200D01*
X2461400Y1026200D02*
X2316300Y1026200D01*
X2813400Y1022100D02*
X2669400Y1022100D01*
X2461400Y1022100D02*
X2317400Y1022100D01*
X2812200Y1018100D02*
X2669400Y1018100D01*
X2461400Y1018100D02*
X2318600Y1018100D01*
X2810900Y1014100D02*
X2669400Y1014100D01*
X2461400Y1014100D02*
X2319900Y1014100D01*
X2809600Y1010100D02*
X2669400Y1010100D01*
X2461400Y1010100D02*
X2321200Y1010100D01*
X2808200Y1006100D02*
X2669400Y1006100D01*
X2461400Y1006100D02*
X2322600Y1006100D01*
X2806800Y1002100D02*
X2669400Y1002100D01*
X2461400Y1002100D02*
X2324000Y1002100D01*
X2805200Y998100D02*
X2669400Y998100D01*
X2461400Y998100D02*
X2325600Y998100D01*
X2803600Y994100D02*
X2669400Y994100D01*
X2461400Y994100D02*
X2327200Y994100D01*
X2801900Y990100D02*
X2669400Y990100D01*
X2461400Y990100D02*
X2328900Y990100D01*
X2800200Y986100D02*
X2669400Y986100D01*
X2461400Y986100D02*
X2330600Y986100D01*
X2798300Y982100D02*
X2669400Y982100D01*
X2461400Y982100D02*
X2332500Y982100D01*
X2796400Y978100D02*
X2669400Y978100D01*
X2461400Y978100D02*
X2334400Y978100D01*
X2794400Y974100D02*
X2669400Y974100D01*
X2461400Y974100D02*
X2336400Y974100D01*
X2792200Y970100D02*
X2669400Y970100D01*
X2461400Y970100D02*
X2338600Y970100D01*
X2790100Y966100D02*
X2669400Y966100D01*
X2461400Y966100D02*
X2340700Y966100D01*
X2787800Y962100D02*
X2669400Y962100D01*
X2461400Y962100D02*
X2343000Y962100D01*
X2785400Y958100D02*
X2669400Y958100D01*
X2461400Y958100D02*
X2345400Y958100D01*
X2782900Y954100D02*
X2669400Y954100D01*
X2461400Y954100D02*
X2347900Y954100D01*
X2780300Y950100D02*
X2669400Y950100D01*
X2461400Y950100D02*
X2350500Y950100D01*
X2777600Y946100D02*
X2669400Y946100D01*
X2461400Y946100D02*
X2353200Y946100D01*
X2774900Y942100D02*
X2669400Y942100D01*
X2461400Y942100D02*
X2355900Y942100D01*
X2771900Y938100D02*
X2669400Y938100D01*
X2461400Y938100D02*
X2358900Y938100D01*
X2768900Y934100D02*
X2669400Y934100D01*
X2461400Y934100D02*
X2361900Y934100D01*
X2765800Y930100D02*
X2669400Y930100D01*
X2461400Y930100D02*
X2365000Y930100D01*
X2762500Y926100D02*
X2669400Y926100D01*
X2461400Y926100D02*
X2368300Y926100D01*
X2759100Y922100D02*
X2669400Y922100D01*
X2461400Y922100D02*
X2371700Y922100D01*
X2755500Y918100D02*
X2669400Y918100D01*
X2461400Y918100D02*
X2375300Y918100D01*
X2751800Y914100D02*
X2669400Y914100D01*
X2461400Y914100D02*
X2379000Y914100D01*
X2748000Y910100D02*
X2669400Y910100D01*
X2461400Y910100D02*
X2382800Y910100D01*
X2743900Y906100D02*
X2669400Y906100D01*
X2461400Y906100D02*
X2386900Y906100D01*
X2739700Y902100D02*
X2669400Y902100D01*
X2461400Y902100D02*
X2391100Y902100D01*
X2735300Y898100D02*
X2669400Y898100D01*
X2461400Y898100D02*
X2395500Y898100D01*
X2730700Y894100D02*
X2669400Y894100D01*
X2461400Y894100D02*
X2400100Y894100D01*
X2725900Y890100D02*
X2669400Y890100D01*
X2461400Y890100D02*
X2404900Y890100D01*
X2720800Y886100D02*
X2669400Y886100D01*
X2461400Y886100D02*
X2410000Y886100D01*
X2715400Y882100D02*
X2669400Y882100D01*
X2461400Y882100D02*
X2415400Y882100D01*
X2709700Y878100D02*
X2669400Y878100D01*
X2461400Y878100D02*
X2421100Y878100D01*
X2703700Y874100D02*
X2669400Y874100D01*
X2461400Y874100D02*
X2427100Y874100D01*
X2697300Y870100D02*
X2669400Y870100D01*
X2461400Y870100D02*
X2433500Y870100D01*
X2690500Y866100D02*
X2669400Y866100D01*
X2461400Y866100D02*
X2440300Y866100D01*
X2683200Y862100D02*
X2447600Y862100D01*
X2675200Y858100D02*
X2455600Y858100D01*
X2666500Y854100D02*
X2464300Y854100D01*
X2656900Y850100D02*
X2473900Y850100D01*
X2645900Y846100D02*
X2484900Y846100D01*
X2633100Y842100D02*
X2497700Y842100D01*
X2617200Y838100D02*
X2513600Y838100D01*
X2593800Y834100D02*
X2537000Y834100D01*
X2712900Y1374678D02*
X2712900Y1324678D01*
X2737900Y1349678D02*
X2687900Y1349678D01*
X3317000Y1296200D02*
X3317000Y892200D01*
X3033000Y1296200D02*
X3033000Y892200D01*
X3317000Y1296200D02*
X3254500Y1296200D01*
X3095500Y1296200D02*
X3033000Y1296200D01*
X3317000Y892200D02*
X3254500Y892200D01*
X3095500Y892200D02*
X3033000Y892200D01*
D10*
X5430038Y8562191D02*
X5330038Y8562191D01*
X5330038Y8586000D01*
X5334800Y8600286D01*
X5344324Y8609810D01*
X5353848Y8614572D01*
X5372895Y8619333D01*
X5387181Y8619333D01*
X5406229Y8614572D01*
X5415752Y8609810D01*
X5425276Y8600286D01*
X5430038Y8586000D01*
X5430038Y8562191D01*
X5430038Y8714571D02*
X5430038Y8657429D01*
X5430038Y8686000D02*
X5330038Y8686000D01*
X5344324Y8676476D01*
X5353848Y8666952D01*
X5358610Y8657429D01*
X5430038Y7800190D02*
X5330038Y7800190D01*
X5330038Y7824000D01*
X5334800Y7838286D01*
X5344324Y7847810D01*
X5353848Y7852571D01*
X5372895Y7857333D01*
X5387181Y7857333D01*
X5406229Y7852571D01*
X5415752Y7847810D01*
X5425276Y7838286D01*
X5430038Y7824000D01*
X5430038Y7800190D01*
X5339562Y7895429D02*
X5334800Y7900190D01*
X5330038Y7909714D01*
X5330038Y7933524D01*
X5334800Y7943048D01*
X5339562Y7947810D01*
X5349086Y7952571D01*
X5358610Y7952571D01*
X5372895Y7947810D01*
X5430038Y7890667D01*
X5430038Y7952571D01*
X5430038Y7038190D02*
X5330038Y7038190D01*
X5330038Y7062000D01*
X5334800Y7076286D01*
X5344324Y7085810D01*
X5353848Y7090571D01*
X5372895Y7095333D01*
X5387181Y7095333D01*
X5406229Y7090571D01*
X5415752Y7085810D01*
X5425276Y7076286D01*
X5430038Y7062000D01*
X5430038Y7038190D01*
X5330038Y7128667D02*
X5330038Y7190571D01*
X5368133Y7157238D01*
X5368133Y7171524D01*
X5372895Y7181048D01*
X5377657Y7185810D01*
X5387181Y7190571D01*
X5410990Y7190571D01*
X5420514Y7185810D01*
X5425276Y7181048D01*
X5430038Y7171524D01*
X5430038Y7142952D01*
X5425276Y7133429D01*
X5420514Y7128667D01*
X5430038Y6276190D02*
X5330038Y6276190D01*
X5330038Y6300000D01*
X5334800Y6314286D01*
X5344324Y6323810D01*
X5353848Y6328571D01*
X5372895Y6333333D01*
X5387181Y6333333D01*
X5406229Y6328571D01*
X5415752Y6323810D01*
X5425276Y6314286D01*
X5430038Y6300000D01*
X5430038Y6276190D01*
X5363371Y6419048D02*
X5430038Y6419048D01*
X5325276Y6395238D02*
X5396705Y6371429D01*
X5396705Y6433333D01*
X5430038Y5514191D02*
X5330038Y5514191D01*
X5330038Y5538000D01*
X5334800Y5552286D01*
X5344324Y5561810D01*
X5353848Y5566572D01*
X5372895Y5571333D01*
X5387181Y5571333D01*
X5406229Y5566572D01*
X5415752Y5561810D01*
X5425276Y5552286D01*
X5430038Y5538000D01*
X5430038Y5514191D01*
X5330038Y5661810D02*
X5330038Y5614190D01*
X5377657Y5609429D01*
X5372895Y5614190D01*
X5368133Y5623714D01*
X5368133Y5647524D01*
X5372895Y5657048D01*
X5377657Y5661810D01*
X5387181Y5666571D01*
X5410990Y5666571D01*
X5420514Y5661810D01*
X5425276Y5657048D01*
X5430038Y5647524D01*
X5430038Y5623714D01*
X5425276Y5614190D01*
X5420514Y5609429D01*
X5430038Y4752191D02*
X5330038Y4752191D01*
X5330038Y4776000D01*
X5334800Y4790286D01*
X5344324Y4799810D01*
X5353848Y4804572D01*
X5372895Y4809333D01*
X5387181Y4809333D01*
X5406229Y4804572D01*
X5415752Y4799810D01*
X5425276Y4790286D01*
X5430038Y4776000D01*
X5430038Y4752191D01*
X5330038Y4895048D02*
X5330038Y4876000D01*
X5334800Y4866476D01*
X5339562Y4861714D01*
X5353848Y4852191D01*
X5372895Y4847429D01*
X5410990Y4847429D01*
X5420514Y4852191D01*
X5425276Y4856952D01*
X5430038Y4866476D01*
X5430038Y4885524D01*
X5425276Y4895048D01*
X5420514Y4899810D01*
X5410990Y4904572D01*
X5387181Y4904572D01*
X5377657Y4899810D01*
X5372895Y4895048D01*
X5368133Y4885524D01*
X5368133Y4866476D01*
X5372895Y4856952D01*
X5377657Y4852191D01*
X5387181Y4847429D01*
X5430038Y3990190D02*
X5330038Y3990190D01*
X5330038Y4014000D01*
X5334800Y4028286D01*
X5344324Y4037810D01*
X5353848Y4042571D01*
X5372895Y4047333D01*
X5387181Y4047333D01*
X5406229Y4042571D01*
X5415752Y4037810D01*
X5425276Y4028286D01*
X5430038Y4014000D01*
X5430038Y3990190D01*
X5330038Y4080667D02*
X5330038Y4147333D01*
X5430038Y4104476D01*
X5430038Y3228190D02*
X5330038Y3228190D01*
X5330038Y3252000D01*
X5334800Y3266286D01*
X5344324Y3275810D01*
X5353848Y3280571D01*
X5372895Y3285333D01*
X5387181Y3285333D01*
X5406229Y3280571D01*
X5415752Y3275810D01*
X5425276Y3266286D01*
X5430038Y3252000D01*
X5430038Y3228190D01*
X5372895Y3342476D02*
X5368133Y3332952D01*
X5363371Y3328190D01*
X5353848Y3323429D01*
X5349086Y3323429D01*
X5339562Y3328190D01*
X5334800Y3332952D01*
X5330038Y3342476D01*
X5330038Y3361524D01*
X5334800Y3371048D01*
X5339562Y3375810D01*
X5349086Y3380571D01*
X5353848Y3380571D01*
X5363371Y3375810D01*
X5368133Y3371048D01*
X5372895Y3361524D01*
X5372895Y3342476D01*
X5377657Y3332952D01*
X5382419Y3328190D01*
X5391943Y3323429D01*
X5410990Y3323429D01*
X5420514Y3328190D01*
X5425276Y3332952D01*
X5430038Y3342476D01*
X5430038Y3361524D01*
X5425276Y3371048D01*
X5420514Y3375810D01*
X5410990Y3380571D01*
X5391943Y3380571D01*
X5382419Y3375810D01*
X5377657Y3371048D01*
X5372895Y3361524D01*
X4668038Y8562191D02*
X4568038Y8562191D01*
X4568038Y8586000D01*
X4572800Y8600286D01*
X4582324Y8609810D01*
X4591848Y8614572D01*
X4610895Y8619333D01*
X4625181Y8619333D01*
X4644229Y8614572D01*
X4653752Y8609810D01*
X4663276Y8600286D01*
X4668038Y8586000D01*
X4668038Y8562191D01*
X4668038Y8666952D02*
X4668038Y8686000D01*
X4663276Y8695524D01*
X4658514Y8700286D01*
X4644229Y8709810D01*
X4625181Y8714571D01*
X4587086Y8714571D01*
X4577562Y8709810D01*
X4572800Y8705048D01*
X4568038Y8695524D01*
X4568038Y8676476D01*
X4572800Y8666952D01*
X4577562Y8662190D01*
X4587086Y8657429D01*
X4610895Y8657429D01*
X4620419Y8662190D01*
X4625181Y8666952D01*
X4629943Y8676476D01*
X4629943Y8695524D01*
X4625181Y8705048D01*
X4620419Y8709810D01*
X4610895Y8714571D01*
X4668038Y7752571D02*
X4568038Y7752571D01*
X4568038Y7776381D01*
X4572800Y7790667D01*
X4582324Y7800190D01*
X4591848Y7804952D01*
X4610895Y7809714D01*
X4625181Y7809714D01*
X4644229Y7804952D01*
X4653752Y7800190D01*
X4663276Y7790667D01*
X4668038Y7776381D01*
X4668038Y7752571D01*
X4668038Y7904952D02*
X4668038Y7847810D01*
X4668038Y7876381D02*
X4568038Y7876381D01*
X4582324Y7866857D01*
X4591848Y7857333D01*
X4596610Y7847810D01*
X4568038Y7966857D02*
X4568038Y7976381D01*
X4572800Y7985905D01*
X4577562Y7990667D01*
X4587086Y7995429D01*
X4606133Y8000190D01*
X4629943Y8000190D01*
X4648990Y7995429D01*
X4658514Y7990667D01*
X4663276Y7985905D01*
X4668038Y7976381D01*
X4668038Y7966857D01*
X4663276Y7957333D01*
X4658514Y7952571D01*
X4648990Y7947810D01*
X4629943Y7943048D01*
X4606133Y7943048D01*
X4587086Y7947810D01*
X4577562Y7952571D01*
X4572800Y7957333D01*
X4568038Y7966857D01*
X4668038Y6990571D02*
X4568038Y6990571D01*
X4568038Y7014381D01*
X4572800Y7028667D01*
X4582324Y7038190D01*
X4591848Y7042952D01*
X4610895Y7047714D01*
X4625181Y7047714D01*
X4644229Y7042952D01*
X4653752Y7038190D01*
X4663276Y7028667D01*
X4668038Y7014381D01*
X4668038Y6990571D01*
X4668038Y7142952D02*
X4668038Y7085810D01*
X4668038Y7114381D02*
X4568038Y7114381D01*
X4582324Y7104857D01*
X4591848Y7095333D01*
X4596610Y7085810D01*
X4668038Y7238190D02*
X4668038Y7181048D01*
X4668038Y7209619D02*
X4568038Y7209619D01*
X4582324Y7200095D01*
X4591848Y7190571D01*
X4596610Y7181048D01*
X4668038Y6228571D02*
X4568038Y6228571D01*
X4568038Y6252381D01*
X4572800Y6266667D01*
X4582324Y6276190D01*
X4591848Y6280952D01*
X4610895Y6285714D01*
X4625181Y6285714D01*
X4644229Y6280952D01*
X4653752Y6276190D01*
X4663276Y6266667D01*
X4668038Y6252381D01*
X4668038Y6228571D01*
X4668038Y6380952D02*
X4668038Y6323810D01*
X4668038Y6352381D02*
X4568038Y6352381D01*
X4582324Y6342857D01*
X4591848Y6333333D01*
X4596610Y6323810D01*
X4577562Y6419048D02*
X4572800Y6423810D01*
X4568038Y6433333D01*
X4568038Y6457143D01*
X4572800Y6466667D01*
X4577562Y6471429D01*
X4587086Y6476190D01*
X4596610Y6476190D01*
X4610895Y6471429D01*
X4668038Y6414286D01*
X4668038Y6476190D01*
X4668038Y5466572D02*
X4568038Y5466572D01*
X4568038Y5490381D01*
X4572800Y5504667D01*
X4582324Y5514191D01*
X4591848Y5518952D01*
X4610895Y5523714D01*
X4625181Y5523714D01*
X4644229Y5518952D01*
X4653752Y5514191D01*
X4663276Y5504667D01*
X4668038Y5490381D01*
X4668038Y5466572D01*
X4668038Y5618952D02*
X4668038Y5561810D01*
X4668038Y5590381D02*
X4568038Y5590381D01*
X4582324Y5580857D01*
X4591848Y5571333D01*
X4596610Y5561810D01*
X4568038Y5652286D02*
X4568038Y5714190D01*
X4606133Y5680857D01*
X4606133Y5695143D01*
X4610895Y5704667D01*
X4615657Y5709429D01*
X4625181Y5714190D01*
X4648990Y5714190D01*
X4658514Y5709429D01*
X4663276Y5704667D01*
X4668038Y5695143D01*
X4668038Y5666571D01*
X4663276Y5657048D01*
X4658514Y5652286D01*
X4668038Y4704572D02*
X4568038Y4704572D01*
X4568038Y4728381D01*
X4572800Y4742667D01*
X4582324Y4752191D01*
X4591848Y4756952D01*
X4610895Y4761714D01*
X4625181Y4761714D01*
X4644229Y4756952D01*
X4653752Y4752191D01*
X4663276Y4742667D01*
X4668038Y4728381D01*
X4668038Y4704572D01*
X4668038Y4856952D02*
X4668038Y4799810D01*
X4668038Y4828381D02*
X4568038Y4828381D01*
X4582324Y4818857D01*
X4591848Y4809333D01*
X4596610Y4799810D01*
X4601371Y4942667D02*
X4668038Y4942667D01*
X4563276Y4918857D02*
X4634705Y4895048D01*
X4634705Y4956952D01*
X4668038Y3942571D02*
X4568038Y3942571D01*
X4568038Y3966381D01*
X4572800Y3980667D01*
X4582324Y3990190D01*
X4591848Y3994952D01*
X4610895Y3999714D01*
X4625181Y3999714D01*
X4644229Y3994952D01*
X4653752Y3990190D01*
X4663276Y3980667D01*
X4668038Y3966381D01*
X4668038Y3942571D01*
X4668038Y4094952D02*
X4668038Y4037810D01*
X4668038Y4066381D02*
X4568038Y4066381D01*
X4582324Y4056857D01*
X4591848Y4047333D01*
X4596610Y4037810D01*
X4568038Y4185429D02*
X4568038Y4137810D01*
X4615657Y4133048D01*
X4610895Y4137810D01*
X4606133Y4147333D01*
X4606133Y4171143D01*
X4610895Y4180667D01*
X4615657Y4185429D01*
X4625181Y4190190D01*
X4648990Y4190190D01*
X4658514Y4185429D01*
X4663276Y4180667D01*
X4668038Y4171143D01*
X4668038Y4147333D01*
X4663276Y4137810D01*
X4658514Y4133048D01*
X4668038Y3180571D02*
X4568038Y3180571D01*
X4568038Y3204381D01*
X4572800Y3218667D01*
X4582324Y3228190D01*
X4591848Y3232952D01*
X4610895Y3237714D01*
X4625181Y3237714D01*
X4644229Y3232952D01*
X4653752Y3228190D01*
X4663276Y3218667D01*
X4668038Y3204381D01*
X4668038Y3180571D01*
X4668038Y3332952D02*
X4668038Y3275810D01*
X4668038Y3304381D02*
X4568038Y3304381D01*
X4582324Y3294857D01*
X4591848Y3285333D01*
X4596610Y3275810D01*
X4568038Y3418667D02*
X4568038Y3399619D01*
X4572800Y3390095D01*
X4577562Y3385333D01*
X4591848Y3375810D01*
X4610895Y3371048D01*
X4648990Y3371048D01*
X4658514Y3375810D01*
X4663276Y3380571D01*
X4668038Y3390095D01*
X4668038Y3409143D01*
X4663276Y3418667D01*
X4658514Y3423429D01*
X4648990Y3428190D01*
X4625181Y3428190D01*
X4615657Y3423429D01*
X4610895Y3418667D01*
X4606133Y3409143D01*
X4606133Y3390095D01*
X4610895Y3380571D01*
X4615657Y3375810D01*
X4625181Y3371048D01*
X3906038Y8514572D02*
X3806038Y8514572D01*
X3806038Y8538381D01*
X3810800Y8552667D01*
X3820324Y8562191D01*
X3829848Y8566952D01*
X3848895Y8571714D01*
X3863181Y8571714D01*
X3882228Y8566952D01*
X3891752Y8562191D01*
X3901276Y8552667D01*
X3906038Y8538381D01*
X3906038Y8514572D01*
X3906038Y8666952D02*
X3906038Y8609810D01*
X3906038Y8638381D02*
X3806038Y8638381D01*
X3820324Y8628857D01*
X3829848Y8619333D01*
X3834609Y8609810D01*
X3806038Y8700286D02*
X3806038Y8766952D01*
X3906038Y8724095D01*
X3906038Y7752571D02*
X3806038Y7752571D01*
X3806038Y7776381D01*
X3810800Y7790667D01*
X3820324Y7800190D01*
X3829848Y7804952D01*
X3848895Y7809714D01*
X3863181Y7809714D01*
X3882228Y7804952D01*
X3891752Y7800190D01*
X3901276Y7790667D01*
X3906038Y7776381D01*
X3906038Y7752571D01*
X3906038Y7904952D02*
X3906038Y7847810D01*
X3906038Y7876381D02*
X3806038Y7876381D01*
X3820324Y7866857D01*
X3829848Y7857333D01*
X3834609Y7847810D01*
X3848895Y7962095D02*
X3844133Y7952571D01*
X3839371Y7947810D01*
X3829848Y7943048D01*
X3825086Y7943048D01*
X3815562Y7947810D01*
X3810800Y7952571D01*
X3806038Y7962095D01*
X3806038Y7981143D01*
X3810800Y7990667D01*
X3815562Y7995429D01*
X3825086Y8000190D01*
X3829848Y8000190D01*
X3839371Y7995429D01*
X3844133Y7990667D01*
X3848895Y7981143D01*
X3848895Y7962095D01*
X3853657Y7952571D01*
X3858419Y7947810D01*
X3867943Y7943048D01*
X3886990Y7943048D01*
X3896514Y7947810D01*
X3901276Y7952571D01*
X3906038Y7962095D01*
X3906038Y7981143D01*
X3901276Y7990667D01*
X3896514Y7995429D01*
X3886990Y8000190D01*
X3867943Y8000190D01*
X3858419Y7995429D01*
X3853657Y7990667D01*
X3848895Y7981143D01*
X3906038Y6990571D02*
X3806038Y6990571D01*
X3806038Y7014381D01*
X3810800Y7028667D01*
X3820324Y7038190D01*
X3829848Y7042952D01*
X3848895Y7047714D01*
X3863181Y7047714D01*
X3882228Y7042952D01*
X3891752Y7038190D01*
X3901276Y7028667D01*
X3906038Y7014381D01*
X3906038Y6990571D01*
X3906038Y7142952D02*
X3906038Y7085810D01*
X3906038Y7114381D02*
X3806038Y7114381D01*
X3820324Y7104857D01*
X3829848Y7095333D01*
X3834609Y7085810D01*
X3906038Y7190571D02*
X3906038Y7209619D01*
X3901276Y7219143D01*
X3896514Y7223905D01*
X3882228Y7233429D01*
X3863181Y7238190D01*
X3825086Y7238190D01*
X3815562Y7233429D01*
X3810800Y7228667D01*
X3806038Y7219143D01*
X3806038Y7200095D01*
X3810800Y7190571D01*
X3815562Y7185810D01*
X3825086Y7181048D01*
X3848895Y7181048D01*
X3858419Y7185810D01*
X3863181Y7190571D01*
X3867943Y7200095D01*
X3867943Y7219143D01*
X3863181Y7228667D01*
X3858419Y7233429D01*
X3848895Y7238190D01*
X3906038Y6228571D02*
X3806038Y6228571D01*
X3806038Y6252381D01*
X3810800Y6266667D01*
X3820324Y6276190D01*
X3829848Y6280952D01*
X3848895Y6285714D01*
X3863181Y6285714D01*
X3882228Y6280952D01*
X3891752Y6276190D01*
X3901276Y6266667D01*
X3906038Y6252381D01*
X3906038Y6228571D01*
X3815562Y6323810D02*
X3810800Y6328571D01*
X3806038Y6338095D01*
X3806038Y6361905D01*
X3810800Y6371429D01*
X3815562Y6376190D01*
X3825086Y6380952D01*
X3834609Y6380952D01*
X3848895Y6376190D01*
X3906038Y6319048D01*
X3906038Y6380952D01*
X3806038Y6442857D02*
X3806038Y6452381D01*
X3810800Y6461905D01*
X3815562Y6466667D01*
X3825086Y6471429D01*
X3844133Y6476190D01*
X3867943Y6476190D01*
X3886990Y6471429D01*
X3896514Y6466667D01*
X3901276Y6461905D01*
X3906038Y6452381D01*
X3906038Y6442857D01*
X3901276Y6433333D01*
X3896514Y6428571D01*
X3886990Y6423810D01*
X3867943Y6419048D01*
X3844133Y6419048D01*
X3825086Y6423810D01*
X3815562Y6428571D01*
X3810800Y6433333D01*
X3806038Y6442857D01*
X3906038Y5466572D02*
X3806038Y5466572D01*
X3806038Y5490381D01*
X3810800Y5504667D01*
X3820324Y5514191D01*
X3829848Y5518952D01*
X3848895Y5523714D01*
X3863181Y5523714D01*
X3882228Y5518952D01*
X3891752Y5514191D01*
X3901276Y5504667D01*
X3906038Y5490381D01*
X3906038Y5466572D01*
X3815562Y5561810D02*
X3810800Y5566572D01*
X3806038Y5576095D01*
X3806038Y5599905D01*
X3810800Y5609429D01*
X3815562Y5614190D01*
X3825086Y5618952D01*
X3834609Y5618952D01*
X3848895Y5614190D01*
X3906038Y5557048D01*
X3906038Y5618952D01*
X3906038Y5714190D02*
X3906038Y5657048D01*
X3906038Y5685619D02*
X3806038Y5685619D01*
X3820324Y5676095D01*
X3829848Y5666571D01*
X3834609Y5657048D01*
X3906038Y4704572D02*
X3806038Y4704572D01*
X3806038Y4728381D01*
X3810800Y4742667D01*
X3820324Y4752191D01*
X3829848Y4756952D01*
X3848895Y4761714D01*
X3863181Y4761714D01*
X3882228Y4756952D01*
X3891752Y4752191D01*
X3901276Y4742667D01*
X3906038Y4728381D01*
X3906038Y4704572D01*
X3815562Y4799810D02*
X3810800Y4804572D01*
X3806038Y4814095D01*
X3806038Y4837905D01*
X3810800Y4847429D01*
X3815562Y4852191D01*
X3825086Y4856952D01*
X3834609Y4856952D01*
X3848895Y4852191D01*
X3906038Y4795048D01*
X3906038Y4856952D01*
X3815562Y4895048D02*
X3810800Y4899810D01*
X3806038Y4909333D01*
X3806038Y4933143D01*
X3810800Y4942667D01*
X3815562Y4947429D01*
X3825086Y4952191D01*
X3834609Y4952191D01*
X3848895Y4947429D01*
X3906038Y4890286D01*
X3906038Y4952191D01*
X3906038Y3942571D02*
X3806038Y3942571D01*
X3806038Y3966381D01*
X3810800Y3980667D01*
X3820324Y3990190D01*
X3829848Y3994952D01*
X3848895Y3999714D01*
X3863181Y3999714D01*
X3882228Y3994952D01*
X3891752Y3990190D01*
X3901276Y3980667D01*
X3906038Y3966381D01*
X3906038Y3942571D01*
X3815562Y4037810D02*
X3810800Y4042571D01*
X3806038Y4052095D01*
X3806038Y4075905D01*
X3810800Y4085429D01*
X3815562Y4090190D01*
X3825086Y4094952D01*
X3834609Y4094952D01*
X3848895Y4090190D01*
X3906038Y4033048D01*
X3906038Y4094952D01*
X3806038Y4128286D02*
X3806038Y4190190D01*
X3844133Y4156857D01*
X3844133Y4171143D01*
X3848895Y4180667D01*
X3853657Y4185429D01*
X3863181Y4190190D01*
X3886990Y4190190D01*
X3896514Y4185429D01*
X3901276Y4180667D01*
X3906038Y4171143D01*
X3906038Y4142571D01*
X3901276Y4133048D01*
X3896514Y4128286D01*
X3906038Y3180571D02*
X3806038Y3180571D01*
X3806038Y3204381D01*
X3810800Y3218667D01*
X3820324Y3228190D01*
X3829848Y3232952D01*
X3848895Y3237714D01*
X3863181Y3237714D01*
X3882228Y3232952D01*
X3891752Y3228190D01*
X3901276Y3218667D01*
X3906038Y3204381D01*
X3906038Y3180571D01*
X3815562Y3275810D02*
X3810800Y3280571D01*
X3806038Y3290095D01*
X3806038Y3313905D01*
X3810800Y3323429D01*
X3815562Y3328190D01*
X3825086Y3332952D01*
X3834609Y3332952D01*
X3848895Y3328190D01*
X3906038Y3271048D01*
X3906038Y3332952D01*
X3839371Y3418667D02*
X3906038Y3418667D01*
X3801276Y3394857D02*
X3872705Y3371048D01*
X3872705Y3432952D01*
X3144038Y8514572D02*
X3044038Y8514572D01*
X3044038Y8538381D01*
X3048800Y8552667D01*
X3058324Y8562191D01*
X3067848Y8566952D01*
X3086895Y8571714D01*
X3101181Y8571714D01*
X3120228Y8566952D01*
X3129752Y8562191D01*
X3139276Y8552667D01*
X3144038Y8538381D01*
X3144038Y8514572D01*
X3053562Y8609810D02*
X3048800Y8614572D01*
X3044038Y8624095D01*
X3044038Y8647905D01*
X3048800Y8657429D01*
X3053562Y8662190D01*
X3063086Y8666952D01*
X3072609Y8666952D01*
X3086895Y8662190D01*
X3144038Y8605048D01*
X3144038Y8666952D01*
X3044038Y8757429D02*
X3044038Y8709810D01*
X3091657Y8705048D01*
X3086895Y8709810D01*
X3082133Y8719333D01*
X3082133Y8743143D01*
X3086895Y8752667D01*
X3091657Y8757429D01*
X3101181Y8762190D01*
X3124990Y8762190D01*
X3134514Y8757429D01*
X3139276Y8752667D01*
X3144038Y8743143D01*
X3144038Y8719333D01*
X3139276Y8709810D01*
X3134514Y8705048D01*
X3144038Y7752571D02*
X3044038Y7752571D01*
X3044038Y7776381D01*
X3048800Y7790667D01*
X3058324Y7800190D01*
X3067848Y7804952D01*
X3086895Y7809714D01*
X3101181Y7809714D01*
X3120228Y7804952D01*
X3129752Y7800190D01*
X3139276Y7790667D01*
X3144038Y7776381D01*
X3144038Y7752571D01*
X3053562Y7847810D02*
X3048800Y7852571D01*
X3044038Y7862095D01*
X3044038Y7885905D01*
X3048800Y7895429D01*
X3053562Y7900190D01*
X3063086Y7904952D01*
X3072609Y7904952D01*
X3086895Y7900190D01*
X3144038Y7843048D01*
X3144038Y7904952D01*
X3044038Y7990667D02*
X3044038Y7971619D01*
X3048800Y7962095D01*
X3053562Y7957333D01*
X3067848Y7947810D01*
X3086895Y7943048D01*
X3124990Y7943048D01*
X3134514Y7947810D01*
X3139276Y7952571D01*
X3144038Y7962095D01*
X3144038Y7981143D01*
X3139276Y7990667D01*
X3134514Y7995429D01*
X3124990Y8000190D01*
X3101181Y8000190D01*
X3091657Y7995429D01*
X3086895Y7990667D01*
X3082133Y7981143D01*
X3082133Y7962095D01*
X3086895Y7952571D01*
X3091657Y7947810D01*
X3101181Y7943048D01*
X3144038Y6990571D02*
X3044038Y6990571D01*
X3044038Y7014381D01*
X3048800Y7028667D01*
X3058324Y7038190D01*
X3067848Y7042952D01*
X3086895Y7047714D01*
X3101181Y7047714D01*
X3120228Y7042952D01*
X3129752Y7038190D01*
X3139276Y7028667D01*
X3144038Y7014381D01*
X3144038Y6990571D01*
X3053562Y7085810D02*
X3048800Y7090571D01*
X3044038Y7100095D01*
X3044038Y7123905D01*
X3048800Y7133429D01*
X3053562Y7138190D01*
X3063086Y7142952D01*
X3072609Y7142952D01*
X3086895Y7138190D01*
X3144038Y7081048D01*
X3144038Y7142952D01*
X3044038Y7176286D02*
X3044038Y7242952D01*
X3144038Y7200095D01*
X3144038Y6228571D02*
X3044038Y6228571D01*
X3044038Y6252381D01*
X3048800Y6266667D01*
X3058324Y6276190D01*
X3067848Y6280952D01*
X3086895Y6285714D01*
X3101181Y6285714D01*
X3120228Y6280952D01*
X3129752Y6276190D01*
X3139276Y6266667D01*
X3144038Y6252381D01*
X3144038Y6228571D01*
X3053562Y6323810D02*
X3048800Y6328571D01*
X3044038Y6338095D01*
X3044038Y6361905D01*
X3048800Y6371429D01*
X3053562Y6376190D01*
X3063086Y6380952D01*
X3072609Y6380952D01*
X3086895Y6376190D01*
X3144038Y6319048D01*
X3144038Y6380952D01*
X3086895Y6438095D02*
X3082133Y6428571D01*
X3077371Y6423810D01*
X3067848Y6419048D01*
X3063086Y6419048D01*
X3053562Y6423810D01*
X3048800Y6428571D01*
X3044038Y6438095D01*
X3044038Y6457143D01*
X3048800Y6466667D01*
X3053562Y6471429D01*
X3063086Y6476190D01*
X3067848Y6476190D01*
X3077371Y6471429D01*
X3082133Y6466667D01*
X3086895Y6457143D01*
X3086895Y6438095D01*
X3091657Y6428571D01*
X3096419Y6423810D01*
X3105943Y6419048D01*
X3124990Y6419048D01*
X3134514Y6423810D01*
X3139276Y6428571D01*
X3144038Y6438095D01*
X3144038Y6457143D01*
X3139276Y6466667D01*
X3134514Y6471429D01*
X3124990Y6476190D01*
X3105943Y6476190D01*
X3096419Y6471429D01*
X3091657Y6466667D01*
X3086895Y6457143D01*
X3144038Y5466572D02*
X3044038Y5466572D01*
X3044038Y5490381D01*
X3048800Y5504667D01*
X3058324Y5514191D01*
X3067848Y5518952D01*
X3086895Y5523714D01*
X3101181Y5523714D01*
X3120228Y5518952D01*
X3129752Y5514191D01*
X3139276Y5504667D01*
X3144038Y5490381D01*
X3144038Y5466572D01*
X3053562Y5561810D02*
X3048800Y5566572D01*
X3044038Y5576095D01*
X3044038Y5599905D01*
X3048800Y5609429D01*
X3053562Y5614190D01*
X3063086Y5618952D01*
X3072609Y5618952D01*
X3086895Y5614190D01*
X3144038Y5557048D01*
X3144038Y5618952D01*
X3144038Y5666571D02*
X3144038Y5685619D01*
X3139276Y5695143D01*
X3134514Y5699905D01*
X3120228Y5709429D01*
X3101181Y5714190D01*
X3063086Y5714190D01*
X3053562Y5709429D01*
X3048800Y5704667D01*
X3044038Y5695143D01*
X3044038Y5676095D01*
X3048800Y5666571D01*
X3053562Y5661810D01*
X3063086Y5657048D01*
X3086895Y5657048D01*
X3096419Y5661810D01*
X3101181Y5666571D01*
X3105943Y5676095D01*
X3105943Y5695143D01*
X3101181Y5704667D01*
X3096419Y5709429D01*
X3086895Y5714190D01*
X3144038Y4704572D02*
X3044038Y4704572D01*
X3044038Y4728381D01*
X3048800Y4742667D01*
X3058324Y4752191D01*
X3067848Y4756952D01*
X3086895Y4761714D01*
X3101181Y4761714D01*
X3120228Y4756952D01*
X3129752Y4752191D01*
X3139276Y4742667D01*
X3144038Y4728381D01*
X3144038Y4704572D01*
X3044038Y4795048D02*
X3044038Y4856952D01*
X3082133Y4823619D01*
X3082133Y4837905D01*
X3086895Y4847429D01*
X3091657Y4852191D01*
X3101181Y4856952D01*
X3124990Y4856952D01*
X3134514Y4852191D01*
X3139276Y4847429D01*
X3144038Y4837905D01*
X3144038Y4809333D01*
X3139276Y4799810D01*
X3134514Y4795048D01*
X3044038Y4918857D02*
X3044038Y4928381D01*
X3048800Y4937905D01*
X3053562Y4942667D01*
X3063086Y4947429D01*
X3082133Y4952191D01*
X3105943Y4952191D01*
X3124990Y4947429D01*
X3134514Y4942667D01*
X3139276Y4937905D01*
X3144038Y4928381D01*
X3144038Y4918857D01*
X3139276Y4909333D01*
X3134514Y4904572D01*
X3124990Y4899810D01*
X3105943Y4895048D01*
X3082133Y4895048D01*
X3063086Y4899810D01*
X3053562Y4904572D01*
X3048800Y4909333D01*
X3044038Y4918857D01*
X3144038Y3942571D02*
X3044038Y3942571D01*
X3044038Y3966381D01*
X3048800Y3980667D01*
X3058324Y3990190D01*
X3067848Y3994952D01*
X3086895Y3999714D01*
X3101181Y3999714D01*
X3120228Y3994952D01*
X3129752Y3990190D01*
X3139276Y3980667D01*
X3144038Y3966381D01*
X3144038Y3942571D01*
X3044038Y4033048D02*
X3044038Y4094952D01*
X3082133Y4061619D01*
X3082133Y4075905D01*
X3086895Y4085429D01*
X3091657Y4090190D01*
X3101181Y4094952D01*
X3124990Y4094952D01*
X3134514Y4090190D01*
X3139276Y4085429D01*
X3144038Y4075905D01*
X3144038Y4047333D01*
X3139276Y4037810D01*
X3134514Y4033048D01*
X3144038Y4190190D02*
X3144038Y4133048D01*
X3144038Y4161619D02*
X3044038Y4161619D01*
X3058324Y4152095D01*
X3067848Y4142571D01*
X3072609Y4133048D01*
X3144038Y3180571D02*
X3044038Y3180571D01*
X3044038Y3204381D01*
X3048800Y3218667D01*
X3058324Y3228190D01*
X3067848Y3232952D01*
X3086895Y3237714D01*
X3101181Y3237714D01*
X3120228Y3232952D01*
X3129752Y3228190D01*
X3139276Y3218667D01*
X3144038Y3204381D01*
X3144038Y3180571D01*
X3044038Y3271048D02*
X3044038Y3332952D01*
X3082133Y3299619D01*
X3082133Y3313905D01*
X3086895Y3323429D01*
X3091657Y3328190D01*
X3101181Y3332952D01*
X3124990Y3332952D01*
X3134514Y3328190D01*
X3139276Y3323429D01*
X3144038Y3313905D01*
X3144038Y3285333D01*
X3139276Y3275810D01*
X3134514Y3271048D01*
X3053562Y3371048D02*
X3048800Y3375810D01*
X3044038Y3385333D01*
X3044038Y3409143D01*
X3048800Y3418667D01*
X3053562Y3423429D01*
X3063086Y3428190D01*
X3072609Y3428190D01*
X3086895Y3423429D01*
X3144038Y3366286D01*
X3144038Y3428190D01*
X2382038Y8514572D02*
X2282038Y8514572D01*
X2282038Y8538381D01*
X2286800Y8552667D01*
X2296324Y8562191D01*
X2305848Y8566952D01*
X2324895Y8571714D01*
X2339181Y8571714D01*
X2358229Y8566952D01*
X2367752Y8562191D01*
X2377276Y8552667D01*
X2382038Y8538381D01*
X2382038Y8514572D01*
X2282038Y8605048D02*
X2282038Y8666952D01*
X2320133Y8633619D01*
X2320133Y8647905D01*
X2324895Y8657429D01*
X2329657Y8662190D01*
X2339181Y8666952D01*
X2362990Y8666952D01*
X2372514Y8662190D01*
X2377276Y8657429D01*
X2382038Y8647905D01*
X2382038Y8619333D01*
X2377276Y8609810D01*
X2372514Y8605048D01*
X2282038Y8700286D02*
X2282038Y8762190D01*
X2320133Y8728857D01*
X2320133Y8743143D01*
X2324895Y8752667D01*
X2329657Y8757429D01*
X2339181Y8762190D01*
X2362990Y8762190D01*
X2372514Y8757429D01*
X2377276Y8752667D01*
X2382038Y8743143D01*
X2382038Y8714571D01*
X2377276Y8705048D01*
X2372514Y8700286D01*
X2382038Y7752571D02*
X2282038Y7752571D01*
X2282038Y7776381D01*
X2286800Y7790667D01*
X2296324Y7800190D01*
X2305848Y7804952D01*
X2324895Y7809714D01*
X2339181Y7809714D01*
X2358229Y7804952D01*
X2367752Y7800190D01*
X2377276Y7790667D01*
X2382038Y7776381D01*
X2382038Y7752571D01*
X2282038Y7843048D02*
X2282038Y7904952D01*
X2320133Y7871619D01*
X2320133Y7885905D01*
X2324895Y7895429D01*
X2329657Y7900190D01*
X2339181Y7904952D01*
X2362990Y7904952D01*
X2372514Y7900190D01*
X2377276Y7895429D01*
X2382038Y7885905D01*
X2382038Y7857333D01*
X2377276Y7847810D01*
X2372514Y7843048D01*
X2315371Y7990667D02*
X2382038Y7990667D01*
X2277276Y7966857D02*
X2348705Y7943048D01*
X2348705Y8004952D01*
X2382038Y6990571D02*
X2282038Y6990571D01*
X2282038Y7014381D01*
X2286800Y7028667D01*
X2296324Y7038190D01*
X2305848Y7042952D01*
X2324895Y7047714D01*
X2339181Y7047714D01*
X2358229Y7042952D01*
X2367752Y7038190D01*
X2377276Y7028667D01*
X2382038Y7014381D01*
X2382038Y6990571D01*
X2282038Y7081048D02*
X2282038Y7142952D01*
X2320133Y7109619D01*
X2320133Y7123905D01*
X2324895Y7133429D01*
X2329657Y7138190D01*
X2339181Y7142952D01*
X2362990Y7142952D01*
X2372514Y7138190D01*
X2377276Y7133429D01*
X2382038Y7123905D01*
X2382038Y7095333D01*
X2377276Y7085810D01*
X2372514Y7081048D01*
X2282038Y7233429D02*
X2282038Y7185810D01*
X2329657Y7181048D01*
X2324895Y7185810D01*
X2320133Y7195333D01*
X2320133Y7219143D01*
X2324895Y7228667D01*
X2329657Y7233429D01*
X2339181Y7238190D01*
X2362990Y7238190D01*
X2372514Y7233429D01*
X2377276Y7228667D01*
X2382038Y7219143D01*
X2382038Y7195333D01*
X2377276Y7185810D01*
X2372514Y7181048D01*
X2382038Y6228571D02*
X2282038Y6228571D01*
X2282038Y6252381D01*
X2286800Y6266667D01*
X2296324Y6276190D01*
X2305848Y6280952D01*
X2324895Y6285714D01*
X2339181Y6285714D01*
X2358229Y6280952D01*
X2367752Y6276190D01*
X2377276Y6266667D01*
X2382038Y6252381D01*
X2382038Y6228571D01*
X2282038Y6319048D02*
X2282038Y6380952D01*
X2320133Y6347619D01*
X2320133Y6361905D01*
X2324895Y6371429D01*
X2329657Y6376190D01*
X2339181Y6380952D01*
X2362990Y6380952D01*
X2372514Y6376190D01*
X2377276Y6371429D01*
X2382038Y6361905D01*
X2382038Y6333333D01*
X2377276Y6323810D01*
X2372514Y6319048D01*
X2282038Y6466667D02*
X2282038Y6447619D01*
X2286800Y6438095D01*
X2291562Y6433333D01*
X2305848Y6423810D01*
X2324895Y6419048D01*
X2362990Y6419048D01*
X2372514Y6423810D01*
X2377276Y6428571D01*
X2382038Y6438095D01*
X2382038Y6457143D01*
X2377276Y6466667D01*
X2372514Y6471429D01*
X2362990Y6476190D01*
X2339181Y6476190D01*
X2329657Y6471429D01*
X2324895Y6466667D01*
X2320133Y6457143D01*
X2320133Y6438095D01*
X2324895Y6428571D01*
X2329657Y6423810D01*
X2339181Y6419048D01*
X2382038Y5466572D02*
X2282038Y5466572D01*
X2282038Y5490381D01*
X2286800Y5504667D01*
X2296324Y5514191D01*
X2305848Y5518952D01*
X2324895Y5523714D01*
X2339181Y5523714D01*
X2358229Y5518952D01*
X2367752Y5514191D01*
X2377276Y5504667D01*
X2382038Y5490381D01*
X2382038Y5466572D01*
X2282038Y5557048D02*
X2282038Y5618952D01*
X2320133Y5585619D01*
X2320133Y5599905D01*
X2324895Y5609429D01*
X2329657Y5614190D01*
X2339181Y5618952D01*
X2362990Y5618952D01*
X2372514Y5614190D01*
X2377276Y5609429D01*
X2382038Y5599905D01*
X2382038Y5571333D01*
X2377276Y5561810D01*
X2372514Y5557048D01*
X2282038Y5652286D02*
X2282038Y5718952D01*
X2382038Y5676095D01*
X2382038Y4704572D02*
X2282038Y4704572D01*
X2282038Y4728381D01*
X2286800Y4742667D01*
X2296324Y4752191D01*
X2305848Y4756952D01*
X2324895Y4761714D01*
X2339181Y4761714D01*
X2358229Y4756952D01*
X2367752Y4752191D01*
X2377276Y4742667D01*
X2382038Y4728381D01*
X2382038Y4704572D01*
X2282038Y4795048D02*
X2282038Y4856952D01*
X2320133Y4823619D01*
X2320133Y4837905D01*
X2324895Y4847429D01*
X2329657Y4852191D01*
X2339181Y4856952D01*
X2362990Y4856952D01*
X2372514Y4852191D01*
X2377276Y4847429D01*
X2382038Y4837905D01*
X2382038Y4809333D01*
X2377276Y4799810D01*
X2372514Y4795048D01*
X2324895Y4914095D02*
X2320133Y4904572D01*
X2315371Y4899810D01*
X2305848Y4895048D01*
X2301086Y4895048D01*
X2291562Y4899810D01*
X2286800Y4904572D01*
X2282038Y4914095D01*
X2282038Y4933143D01*
X2286800Y4942667D01*
X2291562Y4947429D01*
X2301086Y4952191D01*
X2305848Y4952191D01*
X2315371Y4947429D01*
X2320133Y4942667D01*
X2324895Y4933143D01*
X2324895Y4914095D01*
X2329657Y4904572D01*
X2334419Y4899810D01*
X2343943Y4895048D01*
X2362990Y4895048D01*
X2372514Y4899810D01*
X2377276Y4904572D01*
X2382038Y4914095D01*
X2382038Y4933143D01*
X2377276Y4942667D01*
X2372514Y4947429D01*
X2362990Y4952191D01*
X2343943Y4952191D01*
X2334419Y4947429D01*
X2329657Y4942667D01*
X2324895Y4933143D01*
X2382038Y3942571D02*
X2282038Y3942571D01*
X2282038Y3966381D01*
X2286800Y3980667D01*
X2296324Y3990190D01*
X2305848Y3994952D01*
X2324895Y3999714D01*
X2339181Y3999714D01*
X2358229Y3994952D01*
X2367752Y3990190D01*
X2377276Y3980667D01*
X2382038Y3966381D01*
X2382038Y3942571D01*
X2282038Y4033048D02*
X2282038Y4094952D01*
X2320133Y4061619D01*
X2320133Y4075905D01*
X2324895Y4085429D01*
X2329657Y4090190D01*
X2339181Y4094952D01*
X2362990Y4094952D01*
X2372514Y4090190D01*
X2377276Y4085429D01*
X2382038Y4075905D01*
X2382038Y4047333D01*
X2377276Y4037810D01*
X2372514Y4033048D01*
X2382038Y4142571D02*
X2382038Y4161619D01*
X2377276Y4171143D01*
X2372514Y4175905D01*
X2358229Y4185429D01*
X2339181Y4190190D01*
X2301086Y4190190D01*
X2291562Y4185429D01*
X2286800Y4180667D01*
X2282038Y4171143D01*
X2282038Y4152095D01*
X2286800Y4142571D01*
X2291562Y4137810D01*
X2301086Y4133048D01*
X2324895Y4133048D01*
X2334419Y4137810D01*
X2339181Y4142571D01*
X2343943Y4152095D01*
X2343943Y4171143D01*
X2339181Y4180667D01*
X2334419Y4185429D01*
X2324895Y4190190D01*
X2382038Y3180571D02*
X2282038Y3180571D01*
X2282038Y3204381D01*
X2286800Y3218667D01*
X2296324Y3228190D01*
X2305848Y3232952D01*
X2324895Y3237714D01*
X2339181Y3237714D01*
X2358229Y3232952D01*
X2367752Y3228190D01*
X2377276Y3218667D01*
X2382038Y3204381D01*
X2382038Y3180571D01*
X2315371Y3323429D02*
X2382038Y3323429D01*
X2277276Y3299619D02*
X2348705Y3275810D01*
X2348705Y3337714D01*
X2282038Y3394857D02*
X2282038Y3404381D01*
X2286800Y3413905D01*
X2291562Y3418667D01*
X2301086Y3423429D01*
X2320133Y3428190D01*
X2343943Y3428190D01*
X2362990Y3423429D01*
X2372514Y3418667D01*
X2377276Y3413905D01*
X2382038Y3404381D01*
X2382038Y3394857D01*
X2377276Y3385333D01*
X2372514Y3380571D01*
X2362990Y3375810D01*
X2343943Y3371048D01*
X2320133Y3371048D01*
X2301086Y3375810D01*
X2291562Y3380571D01*
X2286800Y3385333D01*
X2282038Y3394857D01*
X1620038Y8514572D02*
X1520038Y8514572D01*
X1520038Y8538381D01*
X1524800Y8552667D01*
X1534324Y8562191D01*
X1543848Y8566952D01*
X1562895Y8571714D01*
X1577181Y8571714D01*
X1596228Y8566952D01*
X1605752Y8562191D01*
X1615276Y8552667D01*
X1620038Y8538381D01*
X1620038Y8514572D01*
X1553371Y8657429D02*
X1620038Y8657429D01*
X1515276Y8633619D02*
X1586705Y8609810D01*
X1586705Y8671714D01*
X1620038Y8762190D02*
X1620038Y8705048D01*
X1620038Y8733619D02*
X1520038Y8733619D01*
X1534324Y8724095D01*
X1543848Y8714571D01*
X1548609Y8705048D01*
X1620038Y7752571D02*
X1520038Y7752571D01*
X1520038Y7776381D01*
X1524800Y7790667D01*
X1534324Y7800190D01*
X1543848Y7804952D01*
X1562895Y7809714D01*
X1577181Y7809714D01*
X1596228Y7804952D01*
X1605752Y7800190D01*
X1615276Y7790667D01*
X1620038Y7776381D01*
X1620038Y7752571D01*
X1553371Y7895429D02*
X1620038Y7895429D01*
X1515276Y7871619D02*
X1586705Y7847810D01*
X1586705Y7909714D01*
X1529562Y7943048D02*
X1524800Y7947810D01*
X1520038Y7957333D01*
X1520038Y7981143D01*
X1524800Y7990667D01*
X1529562Y7995429D01*
X1539086Y8000190D01*
X1548609Y8000190D01*
X1562895Y7995429D01*
X1620038Y7938286D01*
X1620038Y8000190D01*
X1620038Y6990571D02*
X1520038Y6990571D01*
X1520038Y7014381D01*
X1524800Y7028667D01*
X1534324Y7038190D01*
X1543848Y7042952D01*
X1562895Y7047714D01*
X1577181Y7047714D01*
X1596228Y7042952D01*
X1605752Y7038190D01*
X1615276Y7028667D01*
X1620038Y7014381D01*
X1620038Y6990571D01*
X1553371Y7133429D02*
X1620038Y7133429D01*
X1515276Y7109619D02*
X1586705Y7085810D01*
X1586705Y7147714D01*
X1520038Y7176286D02*
X1520038Y7238190D01*
X1558133Y7204857D01*
X1558133Y7219143D01*
X1562895Y7228667D01*
X1567657Y7233429D01*
X1577181Y7238190D01*
X1600990Y7238190D01*
X1610514Y7233429D01*
X1615276Y7228667D01*
X1620038Y7219143D01*
X1620038Y7190571D01*
X1615276Y7181048D01*
X1610514Y7176286D01*
X1620038Y6228571D02*
X1520038Y6228571D01*
X1520038Y6252381D01*
X1524800Y6266667D01*
X1534324Y6276190D01*
X1543848Y6280952D01*
X1562895Y6285714D01*
X1577181Y6285714D01*
X1596228Y6280952D01*
X1605752Y6276190D01*
X1615276Y6266667D01*
X1620038Y6252381D01*
X1620038Y6228571D01*
X1553371Y6371429D02*
X1620038Y6371429D01*
X1515276Y6347619D02*
X1586705Y6323810D01*
X1586705Y6385714D01*
X1553371Y6466667D02*
X1620038Y6466667D01*
X1515276Y6442857D02*
X1586705Y6419048D01*
X1586705Y6480952D01*
X1620038Y5466572D02*
X1520038Y5466572D01*
X1520038Y5490381D01*
X1524800Y5504667D01*
X1534324Y5514191D01*
X1543848Y5518952D01*
X1562895Y5523714D01*
X1577181Y5523714D01*
X1596228Y5518952D01*
X1605752Y5514191D01*
X1615276Y5504667D01*
X1620038Y5490381D01*
X1620038Y5466572D01*
X1553371Y5609429D02*
X1620038Y5609429D01*
X1515276Y5585619D02*
X1586705Y5561810D01*
X1586705Y5623714D01*
X1520038Y5709429D02*
X1520038Y5661810D01*
X1567657Y5657048D01*
X1562895Y5661810D01*
X1558133Y5671333D01*
X1558133Y5695143D01*
X1562895Y5704667D01*
X1567657Y5709429D01*
X1577181Y5714190D01*
X1600990Y5714190D01*
X1610514Y5709429D01*
X1615276Y5704667D01*
X1620038Y5695143D01*
X1620038Y5671333D01*
X1615276Y5661810D01*
X1610514Y5657048D01*
X1620038Y4704572D02*
X1520038Y4704572D01*
X1520038Y4728381D01*
X1524800Y4742667D01*
X1534324Y4752191D01*
X1543848Y4756952D01*
X1562895Y4761714D01*
X1577181Y4761714D01*
X1596228Y4756952D01*
X1605752Y4752191D01*
X1615276Y4742667D01*
X1620038Y4728381D01*
X1620038Y4704572D01*
X1553371Y4847429D02*
X1620038Y4847429D01*
X1515276Y4823619D02*
X1586705Y4799810D01*
X1586705Y4861714D01*
X1520038Y4942667D02*
X1520038Y4923619D01*
X1524800Y4914095D01*
X1529562Y4909333D01*
X1543848Y4899810D01*
X1562895Y4895048D01*
X1600990Y4895048D01*
X1610514Y4899810D01*
X1615276Y4904572D01*
X1620038Y4914095D01*
X1620038Y4933143D01*
X1615276Y4942667D01*
X1610514Y4947429D01*
X1600990Y4952191D01*
X1577181Y4952191D01*
X1567657Y4947429D01*
X1562895Y4942667D01*
X1558133Y4933143D01*
X1558133Y4914095D01*
X1562895Y4904572D01*
X1567657Y4899810D01*
X1577181Y4895048D01*
X1620038Y3942571D02*
X1520038Y3942571D01*
X1520038Y3966381D01*
X1524800Y3980667D01*
X1534324Y3990190D01*
X1543848Y3994952D01*
X1562895Y3999714D01*
X1577181Y3999714D01*
X1596228Y3994952D01*
X1605752Y3990190D01*
X1615276Y3980667D01*
X1620038Y3966381D01*
X1620038Y3942571D01*
X1553371Y4085429D02*
X1620038Y4085429D01*
X1515276Y4061619D02*
X1586705Y4037810D01*
X1586705Y4099714D01*
X1520038Y4128286D02*
X1520038Y4194952D01*
X1620038Y4152095D01*
X1620038Y3180571D02*
X1520038Y3180571D01*
X1520038Y3204381D01*
X1524800Y3218667D01*
X1534324Y3228190D01*
X1543848Y3232952D01*
X1562895Y3237714D01*
X1577181Y3237714D01*
X1596228Y3232952D01*
X1605752Y3228190D01*
X1615276Y3218667D01*
X1620038Y3204381D01*
X1620038Y3180571D01*
X1553371Y3323429D02*
X1620038Y3323429D01*
X1515276Y3299619D02*
X1586705Y3275810D01*
X1586705Y3337714D01*
X1562895Y3390095D02*
X1558133Y3380571D01*
X1553371Y3375810D01*
X1543848Y3371048D01*
X1539086Y3371048D01*
X1529562Y3375810D01*
X1524800Y3380571D01*
X1520038Y3390095D01*
X1520038Y3409143D01*
X1524800Y3418667D01*
X1529562Y3423429D01*
X1539086Y3428190D01*
X1543848Y3428190D01*
X1553371Y3423429D01*
X1558133Y3418667D01*
X1562895Y3409143D01*
X1562895Y3390095D01*
X1567657Y3380571D01*
X1572419Y3375810D01*
X1581943Y3371048D01*
X1600990Y3371048D01*
X1610514Y3375810D01*
X1615276Y3380571D01*
X1620038Y3390095D01*
X1620038Y3409143D01*
X1615276Y3418667D01*
X1610514Y3423429D01*
X1600990Y3428190D01*
X1581943Y3428190D01*
X1572419Y3423429D01*
X1567657Y3418667D01*
X1562895Y3409143D01*
X858038Y8514572D02*
X758038Y8514572D01*
X758038Y8538381D01*
X762800Y8552667D01*
X772324Y8562191D01*
X781848Y8566952D01*
X800895Y8571714D01*
X815181Y8571714D01*
X834228Y8566952D01*
X843752Y8562191D01*
X853276Y8552667D01*
X858038Y8538381D01*
X858038Y8514572D01*
X791371Y8657429D02*
X858038Y8657429D01*
X753276Y8633619D02*
X824705Y8609810D01*
X824705Y8671714D01*
X858038Y8714571D02*
X858038Y8733619D01*
X853276Y8743143D01*
X848514Y8747905D01*
X834228Y8757429D01*
X815181Y8762190D01*
X777086Y8762190D01*
X767562Y8757429D01*
X762800Y8752667D01*
X758038Y8743143D01*
X758038Y8724095D01*
X762800Y8714571D01*
X767562Y8709810D01*
X777086Y8705048D01*
X800895Y8705048D01*
X810419Y8709810D01*
X815181Y8714571D01*
X819943Y8724095D01*
X819943Y8743143D01*
X815181Y8752667D01*
X810419Y8757429D01*
X800895Y8762190D01*
X858038Y7752571D02*
X758038Y7752571D01*
X758038Y7776381D01*
X762800Y7790667D01*
X772324Y7800190D01*
X781848Y7804952D01*
X800895Y7809714D01*
X815181Y7809714D01*
X834228Y7804952D01*
X843752Y7800190D01*
X853276Y7790667D01*
X858038Y7776381D01*
X858038Y7752571D01*
X758038Y7900190D02*
X758038Y7852571D01*
X805657Y7847810D01*
X800895Y7852571D01*
X796133Y7862095D01*
X796133Y7885905D01*
X800895Y7895429D01*
X805657Y7900190D01*
X815181Y7904952D01*
X838990Y7904952D01*
X848514Y7900190D01*
X853276Y7895429D01*
X858038Y7885905D01*
X858038Y7862095D01*
X853276Y7852571D01*
X848514Y7847810D01*
X758038Y7966857D02*
X758038Y7976381D01*
X762800Y7985905D01*
X767562Y7990667D01*
X777086Y7995429D01*
X796133Y8000190D01*
X819943Y8000190D01*
X838990Y7995429D01*
X848514Y7990667D01*
X853276Y7985905D01*
X858038Y7976381D01*
X858038Y7966857D01*
X853276Y7957333D01*
X848514Y7952571D01*
X838990Y7947810D01*
X819943Y7943048D01*
X796133Y7943048D01*
X777086Y7947810D01*
X767562Y7952571D01*
X762800Y7957333D01*
X758038Y7966857D01*
X858038Y6990571D02*
X758038Y6990571D01*
X758038Y7014381D01*
X762800Y7028667D01*
X772324Y7038190D01*
X781848Y7042952D01*
X800895Y7047714D01*
X815181Y7047714D01*
X834228Y7042952D01*
X843752Y7038190D01*
X853276Y7028667D01*
X858038Y7014381D01*
X858038Y6990571D01*
X758038Y7138190D02*
X758038Y7090571D01*
X805657Y7085810D01*
X800895Y7090571D01*
X796133Y7100095D01*
X796133Y7123905D01*
X800895Y7133429D01*
X805657Y7138190D01*
X815181Y7142952D01*
X838990Y7142952D01*
X848514Y7138190D01*
X853276Y7133429D01*
X858038Y7123905D01*
X858038Y7100095D01*
X853276Y7090571D01*
X848514Y7085810D01*
X858038Y7238190D02*
X858038Y7181048D01*
X858038Y7209619D02*
X758038Y7209619D01*
X772324Y7200095D01*
X781848Y7190571D01*
X786609Y7181048D01*
X858038Y6228571D02*
X758038Y6228571D01*
X758038Y6252381D01*
X762800Y6266667D01*
X772324Y6276190D01*
X781848Y6280952D01*
X800895Y6285714D01*
X815181Y6285714D01*
X834228Y6280952D01*
X843752Y6276190D01*
X853276Y6266667D01*
X858038Y6252381D01*
X858038Y6228571D01*
X758038Y6376190D02*
X758038Y6328571D01*
X805657Y6323810D01*
X800895Y6328571D01*
X796133Y6338095D01*
X796133Y6361905D01*
X800895Y6371429D01*
X805657Y6376190D01*
X815181Y6380952D01*
X838990Y6380952D01*
X848514Y6376190D01*
X853276Y6371429D01*
X858038Y6361905D01*
X858038Y6338095D01*
X853276Y6328571D01*
X848514Y6323810D01*
X767562Y6419048D02*
X762800Y6423810D01*
X758038Y6433333D01*
X758038Y6457143D01*
X762800Y6466667D01*
X767562Y6471429D01*
X777086Y6476190D01*
X786609Y6476190D01*
X800895Y6471429D01*
X858038Y6414286D01*
X858038Y6476190D01*
X858038Y5466572D02*
X758038Y5466572D01*
X758038Y5490381D01*
X762800Y5504667D01*
X772324Y5514191D01*
X781848Y5518952D01*
X800895Y5523714D01*
X815181Y5523714D01*
X834228Y5518952D01*
X843752Y5514191D01*
X853276Y5504667D01*
X858038Y5490381D01*
X858038Y5466572D01*
X758038Y5614190D02*
X758038Y5566572D01*
X805657Y5561810D01*
X800895Y5566572D01*
X796133Y5576095D01*
X796133Y5599905D01*
X800895Y5609429D01*
X805657Y5614190D01*
X815181Y5618952D01*
X838990Y5618952D01*
X848514Y5614190D01*
X853276Y5609429D01*
X858038Y5599905D01*
X858038Y5576095D01*
X853276Y5566572D01*
X848514Y5561810D01*
X758038Y5652286D02*
X758038Y5714190D01*
X796133Y5680857D01*
X796133Y5695143D01*
X800895Y5704667D01*
X805657Y5709429D01*
X815181Y5714190D01*
X838990Y5714190D01*
X848514Y5709429D01*
X853276Y5704667D01*
X858038Y5695143D01*
X858038Y5666571D01*
X853276Y5657048D01*
X848514Y5652286D01*
X858038Y4704572D02*
X758038Y4704572D01*
X758038Y4728381D01*
X762800Y4742667D01*
X772324Y4752191D01*
X781848Y4756952D01*
X800895Y4761714D01*
X815181Y4761714D01*
X834228Y4756952D01*
X843752Y4752191D01*
X853276Y4742667D01*
X858038Y4728381D01*
X858038Y4704572D01*
X758038Y4852191D02*
X758038Y4804572D01*
X805657Y4799810D01*
X800895Y4804572D01*
X796133Y4814095D01*
X796133Y4837905D01*
X800895Y4847429D01*
X805657Y4852191D01*
X815181Y4856952D01*
X838990Y4856952D01*
X848514Y4852191D01*
X853276Y4847429D01*
X858038Y4837905D01*
X858038Y4814095D01*
X853276Y4804572D01*
X848514Y4799810D01*
X791371Y4942667D02*
X858038Y4942667D01*
X753276Y4918857D02*
X824705Y4895048D01*
X824705Y4956952D01*
X858038Y3942571D02*
X758038Y3942571D01*
X758038Y3966381D01*
X762800Y3980667D01*
X772324Y3990190D01*
X781848Y3994952D01*
X800895Y3999714D01*
X815181Y3999714D01*
X834228Y3994952D01*
X843752Y3990190D01*
X853276Y3980667D01*
X858038Y3966381D01*
X858038Y3942571D01*
X758038Y4090190D02*
X758038Y4042571D01*
X805657Y4037810D01*
X800895Y4042571D01*
X796133Y4052095D01*
X796133Y4075905D01*
X800895Y4085429D01*
X805657Y4090190D01*
X815181Y4094952D01*
X838990Y4094952D01*
X848514Y4090190D01*
X853276Y4085429D01*
X858038Y4075905D01*
X858038Y4052095D01*
X853276Y4042571D01*
X848514Y4037810D01*
X758038Y4185429D02*
X758038Y4137810D01*
X805657Y4133048D01*
X800895Y4137810D01*
X796133Y4147333D01*
X796133Y4171143D01*
X800895Y4180667D01*
X805657Y4185429D01*
X815181Y4190190D01*
X838990Y4190190D01*
X848514Y4185429D01*
X853276Y4180667D01*
X858038Y4171143D01*
X858038Y4147333D01*
X853276Y4137810D01*
X848514Y4133048D01*
X858038Y3180571D02*
X758038Y3180571D01*
X758038Y3204381D01*
X762800Y3218667D01*
X772324Y3228190D01*
X781848Y3232952D01*
X800895Y3237714D01*
X815181Y3237714D01*
X834228Y3232952D01*
X843752Y3228190D01*
X853276Y3218667D01*
X858038Y3204381D01*
X858038Y3180571D01*
X758038Y3328190D02*
X758038Y3280571D01*
X805657Y3275810D01*
X800895Y3280571D01*
X796133Y3290095D01*
X796133Y3313905D01*
X800895Y3323429D01*
X805657Y3328190D01*
X815181Y3332952D01*
X838990Y3332952D01*
X848514Y3328190D01*
X853276Y3323429D01*
X858038Y3313905D01*
X858038Y3290095D01*
X853276Y3280571D01*
X848514Y3275810D01*
X758038Y3418667D02*
X758038Y3399619D01*
X762800Y3390095D01*
X767562Y3385333D01*
X781848Y3375810D01*
X800895Y3371048D01*
X838990Y3371048D01*
X848514Y3375810D01*
X853276Y3380571D01*
X858038Y3390095D01*
X858038Y3409143D01*
X853276Y3418667D01*
X848514Y3423429D01*
X838990Y3428190D01*
X815181Y3428190D01*
X805657Y3423429D01*
X800895Y3418667D01*
X796133Y3409143D01*
X796133Y3390095D01*
X800895Y3380571D01*
X805657Y3375810D01*
X815181Y3371048D01*
X96038Y8514572D02*
X-3962Y8514572D01*
X-3962Y8538381D01*
X800Y8552667D01*
X10324Y8562191D01*
X19848Y8566952D01*
X38895Y8571714D01*
X53181Y8571714D01*
X72229Y8566952D01*
X81752Y8562191D01*
X91276Y8552667D01*
X96038Y8538381D01*
X96038Y8514572D01*
X-3962Y8662190D02*
X-3962Y8614572D01*
X43657Y8609810D01*
X38895Y8614572D01*
X34133Y8624095D01*
X34133Y8647905D01*
X38895Y8657429D01*
X43657Y8662190D01*
X53181Y8666952D01*
X76991Y8666952D01*
X86514Y8662190D01*
X91276Y8657429D01*
X96038Y8647905D01*
X96038Y8624095D01*
X91276Y8614572D01*
X86514Y8609810D01*
X-3962Y8700286D02*
X-3962Y8766952D01*
X96038Y8724095D01*
X96038Y7752571D02*
X-3962Y7752571D01*
X-3962Y7776381D01*
X800Y7790667D01*
X10324Y7800190D01*
X19848Y7804952D01*
X38895Y7809714D01*
X53181Y7809714D01*
X72229Y7804952D01*
X81752Y7800190D01*
X91276Y7790667D01*
X96038Y7776381D01*
X96038Y7752571D01*
X-3962Y7900190D02*
X-3962Y7852571D01*
X43657Y7847810D01*
X38895Y7852571D01*
X34133Y7862095D01*
X34133Y7885905D01*
X38895Y7895429D01*
X43657Y7900190D01*
X53181Y7904952D01*
X76991Y7904952D01*
X86514Y7900190D01*
X91276Y7895429D01*
X96038Y7885905D01*
X96038Y7862095D01*
X91276Y7852571D01*
X86514Y7847810D01*
X38895Y7962095D02*
X34133Y7952571D01*
X29371Y7947810D01*
X19848Y7943048D01*
X15086Y7943048D01*
X5562Y7947810D01*
X800Y7952571D01*
X-3962Y7962095D01*
X-3962Y7981143D01*
X800Y7990667D01*
X5562Y7995429D01*
X15086Y8000190D01*
X19848Y8000190D01*
X29371Y7995429D01*
X34133Y7990667D01*
X38895Y7981143D01*
X38895Y7962095D01*
X43657Y7952571D01*
X48419Y7947810D01*
X57943Y7943048D01*
X76991Y7943048D01*
X86514Y7947810D01*
X91276Y7952571D01*
X96038Y7962095D01*
X96038Y7981143D01*
X91276Y7990667D01*
X86514Y7995429D01*
X76991Y8000190D01*
X57943Y8000190D01*
X48419Y7995429D01*
X43657Y7990667D01*
X38895Y7981143D01*
X96038Y6990571D02*
X-3962Y6990571D01*
X-3962Y7014381D01*
X800Y7028667D01*
X10324Y7038190D01*
X19848Y7042952D01*
X38895Y7047714D01*
X53181Y7047714D01*
X72229Y7042952D01*
X81752Y7038190D01*
X91276Y7028667D01*
X96038Y7014381D01*
X96038Y6990571D01*
X-3962Y7138190D02*
X-3962Y7090571D01*
X43657Y7085810D01*
X38895Y7090571D01*
X34133Y7100095D01*
X34133Y7123905D01*
X38895Y7133429D01*
X43657Y7138190D01*
X53181Y7142952D01*
X76991Y7142952D01*
X86514Y7138190D01*
X91276Y7133429D01*
X96038Y7123905D01*
X96038Y7100095D01*
X91276Y7090571D01*
X86514Y7085810D01*
X96038Y7190571D02*
X96038Y7209619D01*
X91276Y7219143D01*
X86514Y7223905D01*
X72229Y7233429D01*
X53181Y7238190D01*
X15086Y7238190D01*
X5562Y7233429D01*
X800Y7228667D01*
X-3962Y7219143D01*
X-3962Y7200095D01*
X800Y7190571D01*
X5562Y7185810D01*
X15086Y7181048D01*
X38895Y7181048D01*
X48419Y7185810D01*
X53181Y7190571D01*
X57943Y7200095D01*
X57943Y7219143D01*
X53181Y7228667D01*
X48419Y7233429D01*
X38895Y7238190D01*
X96038Y6228571D02*
X-3962Y6228571D01*
X-3962Y6252381D01*
X800Y6266667D01*
X10324Y6276190D01*
X19848Y6280952D01*
X38895Y6285714D01*
X53181Y6285714D01*
X72229Y6280952D01*
X81752Y6276190D01*
X91276Y6266667D01*
X96038Y6252381D01*
X96038Y6228571D01*
X-3962Y6371429D02*
X-3962Y6352381D01*
X800Y6342857D01*
X5562Y6338095D01*
X19848Y6328571D01*
X38895Y6323810D01*
X76991Y6323810D01*
X86514Y6328571D01*
X91276Y6333333D01*
X96038Y6342857D01*
X96038Y6361905D01*
X91276Y6371429D01*
X86514Y6376190D01*
X76991Y6380952D01*
X53181Y6380952D01*
X43657Y6376190D01*
X38895Y6371429D01*
X34133Y6361905D01*
X34133Y6342857D01*
X38895Y6333333D01*
X43657Y6328571D01*
X53181Y6323810D01*
X-3962Y6442857D02*
X-3962Y6452381D01*
X800Y6461905D01*
X5562Y6466667D01*
X15086Y6471429D01*
X34133Y6476190D01*
X57943Y6476190D01*
X76991Y6471429D01*
X86514Y6466667D01*
X91276Y6461905D01*
X96038Y6452381D01*
X96038Y6442857D01*
X91276Y6433333D01*
X86514Y6428571D01*
X76991Y6423810D01*
X57943Y6419048D01*
X34133Y6419048D01*
X15086Y6423810D01*
X5562Y6428571D01*
X800Y6433333D01*
X-3962Y6442857D01*
X96038Y5466572D02*
X-3962Y5466572D01*
X-3962Y5490381D01*
X800Y5504667D01*
X10324Y5514191D01*
X19848Y5518952D01*
X38895Y5523714D01*
X53181Y5523714D01*
X72229Y5518952D01*
X81752Y5514191D01*
X91276Y5504667D01*
X96038Y5490381D01*
X96038Y5466572D01*
X-3962Y5609429D02*
X-3962Y5590381D01*
X800Y5580857D01*
X5562Y5576095D01*
X19848Y5566572D01*
X38895Y5561810D01*
X76991Y5561810D01*
X86514Y5566572D01*
X91276Y5571333D01*
X96038Y5580857D01*
X96038Y5599905D01*
X91276Y5609429D01*
X86514Y5614190D01*
X76991Y5618952D01*
X53181Y5618952D01*
X43657Y5614190D01*
X38895Y5609429D01*
X34133Y5599905D01*
X34133Y5580857D01*
X38895Y5571333D01*
X43657Y5566572D01*
X53181Y5561810D01*
X96038Y5714190D02*
X96038Y5657048D01*
X96038Y5685619D02*
X-3962Y5685619D01*
X10324Y5676095D01*
X19848Y5666571D01*
X24610Y5657048D01*
X96038Y4704572D02*
X-3962Y4704572D01*
X-3962Y4728381D01*
X800Y4742667D01*
X10324Y4752191D01*
X19848Y4756952D01*
X38895Y4761714D01*
X53181Y4761714D01*
X72229Y4756952D01*
X81752Y4752191D01*
X91276Y4742667D01*
X96038Y4728381D01*
X96038Y4704572D01*
X-3962Y4847429D02*
X-3962Y4828381D01*
X800Y4818857D01*
X5562Y4814095D01*
X19848Y4804572D01*
X38895Y4799810D01*
X76991Y4799810D01*
X86514Y4804572D01*
X91276Y4809333D01*
X96038Y4818857D01*
X96038Y4837905D01*
X91276Y4847429D01*
X86514Y4852191D01*
X76991Y4856952D01*
X53181Y4856952D01*
X43657Y4852191D01*
X38895Y4847429D01*
X34133Y4837905D01*
X34133Y4818857D01*
X38895Y4809333D01*
X43657Y4804572D01*
X53181Y4799810D01*
X5562Y4895048D02*
X800Y4899810D01*
X-3962Y4909333D01*
X-3962Y4933143D01*
X800Y4942667D01*
X5562Y4947429D01*
X15086Y4952191D01*
X24610Y4952191D01*
X38895Y4947429D01*
X96038Y4890286D01*
X96038Y4952191D01*
X96038Y3942571D02*
X-3962Y3942571D01*
X-3962Y3966381D01*
X800Y3980667D01*
X10324Y3990190D01*
X19848Y3994952D01*
X38895Y3999714D01*
X53181Y3999714D01*
X72229Y3994952D01*
X81752Y3990190D01*
X91276Y3980667D01*
X96038Y3966381D01*
X96038Y3942571D01*
X-3962Y4085429D02*
X-3962Y4066381D01*
X800Y4056857D01*
X5562Y4052095D01*
X19848Y4042571D01*
X38895Y4037810D01*
X76991Y4037810D01*
X86514Y4042571D01*
X91276Y4047333D01*
X96038Y4056857D01*
X96038Y4075905D01*
X91276Y4085429D01*
X86514Y4090190D01*
X76991Y4094952D01*
X53181Y4094952D01*
X43657Y4090190D01*
X38895Y4085429D01*
X34133Y4075905D01*
X34133Y4056857D01*
X38895Y4047333D01*
X43657Y4042571D01*
X53181Y4037810D01*
X-3962Y4128286D02*
X-3962Y4190190D01*
X34133Y4156857D01*
X34133Y4171143D01*
X38895Y4180667D01*
X43657Y4185429D01*
X53181Y4190190D01*
X76991Y4190190D01*
X86514Y4185429D01*
X91276Y4180667D01*
X96038Y4171143D01*
X96038Y4142571D01*
X91276Y4133048D01*
X86514Y4128286D01*
X96038Y3180571D02*
X-3962Y3180571D01*
X-3962Y3204381D01*
X800Y3218667D01*
X10324Y3228190D01*
X19848Y3232952D01*
X38895Y3237714D01*
X53181Y3237714D01*
X72229Y3232952D01*
X81752Y3228190D01*
X91276Y3218667D01*
X96038Y3204381D01*
X96038Y3180571D01*
X-3962Y3323429D02*
X-3962Y3304381D01*
X800Y3294857D01*
X5562Y3290095D01*
X19848Y3280571D01*
X38895Y3275810D01*
X76991Y3275810D01*
X86514Y3280571D01*
X91276Y3285333D01*
X96038Y3294857D01*
X96038Y3313905D01*
X91276Y3323429D01*
X86514Y3328190D01*
X76991Y3332952D01*
X53181Y3332952D01*
X43657Y3328190D01*
X38895Y3323429D01*
X34133Y3313905D01*
X34133Y3294857D01*
X38895Y3285333D01*
X43657Y3280571D01*
X53181Y3275810D01*
X29371Y3418667D02*
X96038Y3418667D01*
X-8724Y3394857D02*
X62705Y3371048D01*
X62705Y3432952D01*
X1078238Y2205833D02*
X1030619Y2172500D01*
X1078238Y2148691D02*
X978238Y2148691D01*
X978238Y2186786D01*
X983000Y2196310D01*
X987762Y2201072D01*
X997286Y2205833D01*
X1011571Y2205833D01*
X1021095Y2201072D01*
X1025857Y2196310D01*
X1030619Y2186786D01*
X1030619Y2148691D01*
X1078238Y2301072D02*
X1078238Y2243929D01*
X1078238Y2272500D02*
X978238Y2272500D01*
X992524Y2262976D01*
X1002048Y2253452D01*
X1006809Y2243929D01*
X4623238Y2146310D02*
X4704190Y2146310D01*
X4713714Y2151072D01*
X4718476Y2155833D01*
X4723238Y2165357D01*
X4723238Y2184405D01*
X4718476Y2193929D01*
X4713714Y2198691D01*
X4704190Y2203452D01*
X4623238Y2203452D01*
X4723238Y2303452D02*
X4723238Y2246310D01*
X4723238Y2274881D02*
X4623238Y2274881D01*
X4637524Y2265357D01*
X4647048Y2255833D01*
X4651810Y2246310D01*
X2548733Y1412086D02*
X2543971Y1407324D01*
X2529686Y1402562D01*
X2520162Y1402562D01*
X2505876Y1407324D01*
X2496352Y1416848D01*
X2491590Y1426371D01*
X2486829Y1445419D01*
X2486829Y1459705D01*
X2491590Y1478752D01*
X2496352Y1488276D01*
X2505876Y1497800D01*
X2520162Y1502562D01*
X2529686Y1502562D01*
X2543971Y1497800D01*
X2548733Y1493038D01*
X2586829Y1493038D02*
X2591590Y1497800D01*
X2601114Y1502562D01*
X2624924Y1502562D01*
X2634448Y1497800D01*
X2639210Y1493038D01*
X2643971Y1483514D01*
X2643971Y1473990D01*
X2639210Y1459705D01*
X2582067Y1402562D01*
X2643971Y1402562D01*
X3158333Y1361286D02*
X3153571Y1356524D01*
X3139286Y1351762D01*
X3129762Y1351762D01*
X3115476Y1356524D01*
X3105952Y1366048D01*
X3101190Y1375572D01*
X3096428Y1394619D01*
X3096428Y1408905D01*
X3101190Y1427952D01*
X3105952Y1437476D01*
X3115476Y1447000D01*
X3129762Y1451762D01*
X3139286Y1451762D01*
X3153571Y1447000D01*
X3158333Y1442238D01*
X3253571Y1351762D02*
X3196428Y1351762D01*
X3225000Y1351762D02*
X3225000Y1451762D01*
X3215476Y1437476D01*
X3205952Y1427952D01*
X3196428Y1423190D01*
%LPC*%
D13*
X5842000Y8636000D03*
D14*
X5588000Y8636000D03*
D13*
X5842000Y7874000D03*
D14*
X5588000Y7874000D03*
D13*
X5842000Y7112000D03*
D14*
X5588000Y7112000D03*
X5588000Y6350000D03*
D13*
X5842000Y6350000D03*
X5842000Y5588000D03*
D14*
X5588000Y5588000D03*
X5588000Y4826000D03*
D13*
X5842000Y4826000D03*
X5842000Y4064000D03*
D14*
X5588000Y4064000D03*
D13*
X5842000Y3302000D03*
D14*
X5588000Y3302000D03*
X4826000Y8636000D03*
D13*
X5080000Y8636000D03*
D14*
X4826000Y7874000D03*
D13*
X5080000Y7874000D03*
D14*
X4826000Y7112000D03*
D13*
X5080000Y7112000D03*
X5080000Y6350000D03*
D14*
X4826000Y6350000D03*
X4826000Y5588000D03*
D13*
X5080000Y5588000D03*
X5080000Y4826000D03*
D14*
X4826000Y4826000D03*
D13*
X5080000Y4064000D03*
D14*
X4826000Y4064000D03*
D13*
X5080000Y3302000D03*
D14*
X4826000Y3302000D03*
D13*
X4318000Y8636000D03*
D14*
X4064000Y8636000D03*
D13*
X4318000Y7874000D03*
D14*
X4064000Y7874000D03*
D13*
X4318000Y7112000D03*
D14*
X4064000Y7112000D03*
X4064000Y6350000D03*
D13*
X4318000Y6350000D03*
X4318000Y5588000D03*
D14*
X4064000Y5588000D03*
X4064000Y4826000D03*
D13*
X4318000Y4826000D03*
D14*
X4064000Y4064000D03*
D13*
X4318000Y4064000D03*
D14*
X4064000Y3302000D03*
D13*
X4318000Y3302000D03*
D14*
X3302000Y8636000D03*
D13*
X3556000Y8636000D03*
D14*
X3302000Y7874000D03*
D13*
X3556000Y7874000D03*
D14*
X3302000Y7112000D03*
D13*
X3556000Y7112000D03*
X3556000Y6350000D03*
D14*
X3302000Y6350000D03*
X3302000Y5588000D03*
D13*
X3556000Y5588000D03*
D14*
X3302000Y4826000D03*
D13*
X3556000Y4826000D03*
X3556000Y4064000D03*
D14*
X3302000Y4064000D03*
D13*
X3556000Y3302000D03*
D14*
X3302000Y3302000D03*
D13*
X2794000Y8636000D03*
D14*
X2540000Y8636000D03*
D13*
X2794000Y7874000D03*
D14*
X2540000Y7874000D03*
D13*
X2794000Y7112000D03*
D14*
X2540000Y7112000D03*
X2540000Y6350000D03*
D13*
X2794000Y6350000D03*
X2794000Y5588000D03*
D14*
X2540000Y5588000D03*
D13*
X2794000Y4826000D03*
D14*
X2540000Y4826000D03*
X2540000Y4064000D03*
D13*
X2794000Y4064000D03*
D14*
X2540000Y3302000D03*
D13*
X2794000Y3302000D03*
D14*
X1778000Y8636000D03*
D13*
X2032000Y8636000D03*
D14*
X1778000Y7874000D03*
D13*
X2032000Y7874000D03*
D14*
X1778000Y7112000D03*
D13*
X2032000Y7112000D03*
D14*
X1778000Y6350000D03*
D13*
X2032000Y6350000D03*
D14*
X1778000Y5588000D03*
D13*
X2032000Y5588000D03*
D14*
X1778000Y4826000D03*
D13*
X2032000Y4826000D03*
X2032000Y4064000D03*
D14*
X1778000Y4064000D03*
D13*
X2032000Y3302000D03*
D14*
X1778000Y3302000D03*
D13*
X1270000Y8636000D03*
D14*
X1016000Y8636000D03*
D13*
X1270000Y7874000D03*
D14*
X1016000Y7874000D03*
D13*
X1270000Y7112000D03*
D14*
X1016000Y7112000D03*
D13*
X1270000Y6350000D03*
D14*
X1016000Y6350000D03*
D13*
X1270000Y5588000D03*
D14*
X1016000Y5588000D03*
D13*
X1270000Y4826000D03*
D14*
X1016000Y4826000D03*
X1016000Y4064000D03*
D13*
X1270000Y4064000D03*
D14*
X1016000Y3302000D03*
D13*
X1270000Y3302000D03*
D14*
X254000Y8636000D03*
D13*
X508000Y8636000D03*
D14*
X254000Y7874000D03*
D13*
X508000Y7874000D03*
D14*
X254000Y7112000D03*
D13*
X508000Y7112000D03*
D14*
X254000Y6350000D03*
D13*
X508000Y6350000D03*
D14*
X254000Y5588000D03*
D13*
X508000Y5588000D03*
D14*
X254000Y4826000D03*
D13*
X508000Y4826000D03*
X508000Y4064000D03*
D14*
X254000Y4064000D03*
D13*
X508000Y3302000D03*
D14*
X254000Y3302000D03*
D15*
X381000Y9271000D03*
X5715000Y9271000D03*
X5715000Y381000D03*
X381000Y381000D03*
D16*
X1270000Y1219200D03*
D17*
X762000Y1219200D03*
D18*
X4445000Y965200D03*
D19*
X4445000Y1219200D03*
X4191000Y965200D03*
X4191000Y1219200D03*
X3937000Y965200D03*
X3937000Y1219200D03*
D20*
X1270000Y1841500D03*
D21*
X1270000Y2603500D03*
D22*
X4445000Y2603500D03*
D21*
X1651000Y1841500D03*
X4191000Y2603500D03*
X1905000Y1841500D03*
X3937000Y2603500D03*
X2159000Y1841500D03*
X3683000Y2603500D03*
X2413000Y1841500D03*
X3429000Y2603500D03*
X2667000Y1841500D03*
X3175000Y2603500D03*
X2921000Y1841500D03*
X2921000Y2603500D03*
X3175000Y1841500D03*
X2667000Y2603500D03*
X3429000Y1841500D03*
X2413000Y2603500D03*
X3683000Y1841500D03*
X2159000Y2603500D03*
X3937000Y1841500D03*
X1905000Y2603500D03*
X4191000Y1841500D03*
X1651000Y2603500D03*
X4445000Y1841500D03*
D22*
X2565400Y1219200D03*
D20*
X2565400Y969200D03*
X3175000Y1219200D03*
X3175000Y969200D03*
M02*
