M48
; DRILL file {KiCad (5.1.0)-1} date 4/17/2023 7:30:44 PM
; FORMAT={-:-/ absolute / metric / decimal}
; #@! TF.CreationDate,2023-04-17T19:30:44-07:00
; #@! TF.GenerationSoftware,Kicad,Pcbnew,(5.1.0)-1
; #@! TF.FileFunction,Plated,1,2,PTH
FMAT,2
METRIC
T1C0.508
T2C0.800
T3C0.900
T4C1.000
T5C1.520
%
G90
G05
T1
X14.478Y23.876
X50.8Y15.748
T2
X12.7Y26.035
X12.7Y18.415
X31.75Y12.192
X31.75Y9.692
X16.51Y26.035
X16.51Y18.415
X19.05Y26.035
X19.05Y18.415
X21.59Y26.035
X21.59Y18.415
X24.13Y26.035
X24.13Y18.415
X26.67Y26.035
X26.67Y18.415
X29.21Y26.035
X29.21Y18.415
X31.75Y26.035
X31.75Y18.415
X34.29Y26.035
X34.29Y18.415
X36.83Y26.035
X36.83Y18.415
X39.37Y26.035
X39.37Y18.415
X41.91Y26.035
X41.91Y18.415
X44.45Y26.035
X44.45Y18.415
X25.654Y12.192
X25.654Y9.692
T3
X40.64Y40.64
X43.18Y40.64
X2.54Y86.36
X5.08Y86.36
X25.4Y71.12
X27.94Y71.12
X55.88Y40.64
X58.42Y40.64
X48.26Y48.26
X50.8Y48.26
X10.16Y78.74
X12.7Y78.74
X17.78Y78.74
X20.32Y78.74
X48.26Y78.74
X50.8Y78.74
X40.64Y86.36
X43.18Y86.36
X2.54Y78.74
X5.08Y78.74
X25.4Y63.5
X27.94Y63.5
X55.88Y63.5
X58.42Y63.5
X40.64Y63.5
X43.18Y63.5
X10.16Y71.12
X12.7Y71.12
X55.88Y55.88
X58.42Y55.88
X33.02Y48.26
X35.56Y48.26
X2.54Y71.12
X5.08Y71.12
X17.78Y86.36
X20.32Y86.36
X25.4Y33.02
X27.94Y33.02
X33.02Y40.64
X35.56Y40.64
X17.78Y33.02
X20.32Y33.02
X40.64Y48.26
X43.18Y48.26
X2.54Y33.02
X5.08Y33.02
X25.4Y86.36
X27.94Y86.36
X55.88Y48.26
X58.42Y48.26
X33.02Y78.74
X35.56Y78.74
X2.54Y48.26
X5.08Y48.26
X33.02Y33.02
X35.56Y33.02
X48.26Y86.36
X50.8Y86.36
X40.64Y33.02
X43.18Y33.02
X48.26Y55.88
X50.8Y55.88
X10.16Y40.64
X12.7Y40.64
X17.78Y71.12
X20.32Y71.12
X48.26Y63.5
X50.8Y63.5
X33.02Y86.36
X35.56Y86.36
X2.54Y55.88
X5.08Y55.88
X33.02Y63.5
X35.56Y63.5
X2.54Y40.64
X5.08Y40.64
X55.88Y71.12
X58.42Y71.12
X55.88Y33.02
X58.42Y33.02
X17.78Y63.5
X20.32Y63.5
X17.78Y55.88
X20.32Y55.88
X40.64Y55.88
X43.18Y55.88
X10.16Y86.36
X12.7Y86.36
X40.64Y71.12
X43.18Y71.12
X10.16Y33.02
X12.7Y33.02
X25.4Y78.74
X27.94Y78.74
X48.26Y40.64
X50.8Y40.64
X10.16Y63.5
X12.7Y63.5
X25.4Y55.88
X27.94Y55.88
X48.26Y33.02
X50.8Y33.02
X25.4Y40.64
X27.94Y40.64
X55.88Y78.74
X58.42Y78.74
X33.02Y71.12
X35.56Y71.12
X10.16Y55.88
X12.7Y55.88
X55.88Y86.36
X58.42Y86.36
X33.02Y55.88
X35.56Y55.88
X2.54Y63.5
X5.08Y63.5
X10.16Y48.26
X12.7Y48.26
X48.26Y71.12
X50.8Y71.12
X17.78Y48.26
X20.32Y48.26
X17.78Y40.64
X20.32Y40.64
X40.64Y78.74
X43.18Y78.74
X25.4Y48.26
X27.94Y48.26
T4
X39.37Y12.192
X39.37Y9.652
X41.91Y12.192
X41.91Y9.652
X44.45Y12.192
X44.45Y9.652
T5
X7.62Y12.192
X12.7Y12.192
T0
M30
